<svg width="216" height="68" viewBox="0 0 216 68" fill="none" xmlns="http://www.w3.org/2000/svg">
<path d="M215.054 60.3172C215.105 60.3854 215.142 60.464 215.161 60.5478C215.18 60.6316 215.182 60.7186 215.165 60.803C215.149 60.8874 215.116 60.9673 215.067 61.0374C215.018 61.1075 214.955 61.1662 214.882 61.2095C214.742 61.3071 214.571 61.3466 214.403 61.32C214.235 61.2934 214.084 61.2026 213.979 61.0661C213.979 61.0661 210.272 55.6325 207.562 54.5649C206.83 54.2462 206.472 54.5649 205.569 55.3457C204.182 56.6204 202.064 58.5325 196.473 58.1183C196.39 58.1163 196.309 58.0972 196.234 58.0621C196.159 58.027 196.091 57.9765 196.036 57.9139C195.981 57.8512 195.938 57.7778 195.911 57.6978C195.885 57.6179 195.874 57.5332 195.881 57.449C195.893 57.2687 195.972 57.1001 196.103 56.9783C196.234 56.8566 196.405 56.7912 196.582 56.7957C201.612 57.1622 203.388 55.5528 204.712 54.3418C205.646 53.4973 206.519 52.7484 208.045 53.322C211.16 54.5649 214.882 60.0782 215.054 60.3172ZM175.944 35.5553C174.599 35.261 173.217 35.1857 171.848 35.3322C171.475 35.3521 171.1 35.3521 170.727 35.3322C170.555 35.3314 170.39 35.3965 170.263 35.5145C170.136 35.6325 170.057 35.7949 170.041 35.9696C170.028 36.1446 170.083 36.3179 170.194 36.452C170.305 36.5861 170.462 36.6704 170.633 36.6866C171.069 36.7144 171.506 36.7144 171.942 36.6866C171.956 36.695 171.972 36.6994 171.988 36.6994C172.005 36.6994 172.021 36.695 172.035 36.6866C172.049 37.0467 172.145 37.3985 172.315 37.7139C172.485 38.0293 172.726 38.2996 173.016 38.5031C173.86 39.0379 174.811 39.3701 175.799 39.475C176.786 39.5799 177.784 39.4546 178.717 39.1086C179.112 39.0122 179.478 38.8158 179.78 38.5374C180.082 38.259 180.311 37.9076 180.446 37.5152C180.464 37.4315 180.466 37.3449 180.452 37.2603C180.438 37.1758 180.407 37.095 180.362 37.0225C180.317 36.95 180.259 36.8873 180.191 36.8378C180.122 36.7884 180.045 36.7532 179.963 36.7344C179.881 36.7156 179.796 36.7134 179.714 36.728C179.631 36.7427 179.552 36.7738 179.481 36.8197C179.41 36.8656 179.349 36.9253 179.301 36.9954C179.252 37.0655 179.218 37.1446 179.2 37.2283C179.101 37.406 178.967 37.5602 178.806 37.6811C178.645 37.8019 178.46 37.8866 178.265 37.9295C177.54 38.1986 176.766 38.3038 175.997 38.2378C175.228 38.1718 174.482 37.9362 173.811 37.5471C173.669 37.4506 173.549 37.3236 173.461 37.175C173.372 37.0264 173.316 36.8597 173.297 36.6866C174.076 36.7253 174.852 36.8212 175.617 36.9734C175.998 37.0456 176.383 37.0935 176.77 37.1168C177.193 37.0762 177.61 36.9908 178.016 36.8619C178.969 36.598 179.958 36.4904 180.944 36.5432C181.095 36.621 181.27 36.6345 181.43 36.5808C181.591 36.527 181.724 36.4104 181.801 36.2564C181.845 36.1816 181.874 36.0977 181.884 36.0106C181.894 35.9235 181.885 35.8353 181.858 35.7519C181.832 35.6686 181.788 35.5922 181.729 35.5279C181.671 35.4637 181.6 35.4132 181.52 35.38C180.28 35.0867 178.984 35.1586 177.782 35.5871C177.331 35.6987 176.879 35.7624 176.739 35.8102C176.446 35.7802 176.154 35.7323 175.867 35.6668M175.867 33.7069C174.869 33.342 173.802 33.2219 172.752 33.3563C172.587 33.3838 172.44 33.4758 172.341 33.6127C172.242 33.7496 172.199 33.9206 172.222 34.0893C172.237 34.1763 172.269 34.2594 172.315 34.3338C172.362 34.4082 172.422 34.4725 172.493 34.5229C172.564 34.5732 172.644 34.6087 172.729 34.6273C172.813 34.6458 172.9 34.6471 172.985 34.631C173.856 34.5755 174.729 34.6946 175.555 34.9816C175.638 35.0107 175.726 35.0216 175.813 35.0137C175.9 35.0057 175.984 34.9791 176.061 34.9355C176.137 34.8919 176.204 34.8323 176.256 34.7606C176.309 34.689 176.346 34.6068 176.365 34.5195C176.408 34.3506 176.385 34.171 176.301 34.0192C176.216 33.8673 176.077 33.7552 175.913 33.7069M178.125 34.8064C178.826 34.5846 179.556 34.477 180.29 34.4876C180.458 34.4878 180.62 34.4218 180.742 34.3031C180.864 34.1844 180.936 34.0222 180.944 33.8503C180.948 33.7632 180.935 33.6761 180.906 33.5942C180.877 33.5122 180.832 33.4372 180.774 33.3733C180.716 33.3094 180.646 33.2581 180.568 33.2224C180.49 33.1866 180.406 33.1671 180.321 33.1651C179.424 33.1631 178.532 33.2974 177.673 33.5635C177.518 33.6339 177.393 33.7609 177.324 33.92C177.255 34.079 177.246 34.2586 177.299 34.4239C177.327 34.506 177.371 34.5814 177.428 34.6456C177.485 34.7098 177.554 34.7615 177.632 34.7973C177.709 34.8331 177.793 34.8523 177.877 34.8539C177.962 34.8555 178.046 34.8393 178.125 34.8064ZM187.096 33.7706C188.102 30.7488 187.963 27.4508 186.707 24.5287C186.676 24.4494 186.63 24.3773 186.572 24.3165C186.513 24.2558 186.444 24.2076 186.367 24.1749C186.29 24.1423 186.207 24.1257 186.124 24.1263C186.04 24.1268 185.958 24.1444 185.881 24.1781C185.724 24.2546 185.601 24.3893 185.538 24.5551C185.474 24.7208 185.475 24.905 185.539 25.0705C186.625 27.6832 186.747 30.6108 185.881 33.3085C183.794 38.6784 182.128 41.9927 180.835 43.0125C179.278 44.3032 173.966 45.4664 169.138 43.0922C169.045 43.0125 168.904 42.9488 168.733 42.8373C168.201 42.515 167.623 42.2785 167.02 42.1361C166.938 42.115 166.853 42.1112 166.769 42.1249C166.686 42.1385 166.606 42.1694 166.535 42.2156C166.463 42.2618 166.402 42.3224 166.354 42.3936C166.306 42.4649 166.273 42.5453 166.257 42.6301C166.226 42.8025 166.259 42.9804 166.347 43.1301C166.436 43.2798 166.576 43.391 166.74 43.4427C167.223 43.5448 167.682 43.7394 168.095 44.0164L168.655 44.3032C174.278 47.0758 180.056 45.4664 181.754 44.0482C183.452 42.6301 184.947 39.5707 187.174 33.7706M182.657 24.4013C182.96 24.3888 183.246 24.2547 183.453 24.028C183.66 23.8013 183.772 23.5003 183.763 23.1902C183.768 22.9358 183.698 22.6858 183.561 22.4732C184.091 22.5993 184.611 22.7643 185.118 22.9672C185.19 23.01 185.269 23.0365 185.351 23.0451C185.434 23.0537 185.517 23.044 185.595 23.0168C185.673 22.9896 185.745 22.9455 185.805 22.8874C185.865 22.8294 185.913 22.7587 185.944 22.6803C185.986 22.6049 186.012 22.5213 186.021 22.4348C186.029 22.3484 186.02 22.261 185.994 22.1784C185.967 22.0958 185.924 22.0199 185.867 21.9554C185.81 21.8909 185.741 21.8393 185.663 21.804C184.33 21.13 182.805 20.9661 181.365 21.3418C180.933 21.5139 180.539 21.7713 180.205 22.0995C179.871 22.4276 179.603 22.8199 179.418 23.254C179.353 23.4194 179.353 23.6037 179.417 23.7694C179.48 23.9351 179.603 24.0699 179.76 24.1463C179.838 24.1803 179.922 24.1982 180.006 24.1989C180.09 24.1997 180.174 24.1833 180.252 24.1507C180.331 24.1181 180.402 24.0699 180.462 24.009C180.522 23.9481 180.569 23.8756 180.601 23.7957C180.785 23.3088 181.141 22.9104 181.598 22.6803C181.534 22.8423 181.503 23.0156 181.505 23.1902C181.496 23.4951 181.603 23.7916 181.804 24.0174C182.004 24.2432 182.282 24.3808 182.579 24.4013M202.656 53.8957C203.289 53.4008 203.713 52.6766 203.84 51.872C203.84 51.5533 203.84 51.2984 203.84 51.0434C203.894 50.4834 203.772 49.9204 203.492 49.4361C203.212 48.9518 202.788 48.5715 202.282 48.3505C201.94 48.1274 201.753 48.0318 201.753 47.745C201.782 47.4843 201.856 47.2308 201.971 46.9961C202.106 46.5964 202.174 46.1762 202.173 45.7532C202.186 45.2854 202.089 44.8213 201.893 44.3988C201.266 43.2924 200.319 42.4127 199.183 41.8812C200.117 40.4621 200.655 38.8095 200.74 37.1009C200.755 36.8355 200.755 36.5695 200.74 36.3042C200.56 34.3007 199.614 32.451 198.108 31.1574C197.345 30.4085 196.955 30.0261 196.955 29.1975C196.955 28.7354 196.955 28.1618 197.096 27.6041C197.096 26.6799 197.298 25.6441 197.298 24.5925C197.409 23.5623 197.26 22.5203 196.864 21.5661C196.469 20.612 195.841 19.7776 195.04 19.1429C195.493 18.216 195.742 17.1991 195.772 16.1632C195.789 15.5753 195.672 14.9913 195.429 14.4583C195.15 13.9176 194.757 13.4478 194.277 13.0837C193.797 12.7197 193.243 12.4706 192.657 12.3549C192.408 11.6672 192.292 10.9367 192.314 10.2038C192.314 9.80542 192.314 9.39115 192.174 8.92905C192.043 8.39914 191.798 7.90615 191.455 7.4868C191.113 7.06746 190.682 6.73253 190.196 6.507C189.609 6.22348 188.956 6.11314 188.311 6.18835C187.969 3.44765 187.065 3.00148 185.71 2.84213C184.788 2.77235 183.923 2.35836 183.28 1.67891C182.97 1.28518 182.571 0.972872 182.119 0.767823C181.667 0.562774 181.173 0.470894 180.679 0.499787C180.09 0.576147 179.542 0.850794 179.122 1.28055C178.517 0.720408 177.741 0.393591 176.926 0.356384C176.476 0.374898 176.036 0.492692 175.636 0.701738C175.235 0.910783 174.883 1.20609 174.605 1.56736C174.498 1.69667 174.44 1.86035 174.44 2.02947C174.44 2.19858 174.498 2.36226 174.605 2.49158C174.742 2.60705 174.918 2.66327 175.096 2.6484C175.273 2.63353 175.438 2.54871 175.555 2.41188C175.7 2.19911 175.89 2.02267 176.112 1.89574C176.333 1.76881 176.579 1.69469 176.832 1.67891C177.526 1.79041 178.163 2.13855 178.639 2.66683C178.7 2.74773 178.782 2.80988 178.875 2.84641C178.969 2.88295 179.07 2.89247 179.169 2.87398C179.275 2.87624 179.38 2.84751 179.471 2.79107C179.562 2.73464 179.635 2.65287 179.683 2.55533C179.795 2.36226 179.946 2.19569 180.126 2.06662C180.306 1.93755 180.51 1.84889 180.726 1.80641C181.178 1.80641 181.661 2.02949 182.284 2.60313C183.117 3.47839 184.214 4.03991 185.399 4.19656C185.959 4.19656 186.224 4.33995 186.411 4.57897C186.833 5.36403 187.048 6.24832 187.034 7.14437C187.036 7.24821 187.066 7.34949 187.121 7.43676C187.176 7.52404 187.254 7.59388 187.346 7.63838C187.438 7.69946 187.547 7.73189 187.657 7.73189C187.767 7.73189 187.876 7.69946 187.969 7.63838C188.209 7.50993 188.476 7.44279 188.747 7.44279C189.019 7.44279 189.286 7.50993 189.526 7.63838C189.831 7.76518 190.103 7.96181 190.322 8.2132C190.54 8.4646 190.7 8.764 190.788 9.08835C190.788 9.48671 190.881 9.83727 190.912 10.2356C190.946 11.1718 191.174 12.0899 191.582 12.9285C191.62 13.0228 191.682 13.1049 191.761 13.1665C191.841 13.2281 191.935 13.267 192.034 13.2791C192.482 13.3367 192.912 13.4988 193.29 13.753C193.668 14.0071 193.984 14.3465 194.214 14.7451C194.406 15.4271 194.446 16.1441 194.333 16.8442C194.22 17.5442 193.956 18.2097 193.56 18.7924C193.525 18.8782 193.507 18.9702 193.507 19.0632C193.507 19.1563 193.525 19.2484 193.56 19.3342C193.58 19.4228 193.622 19.5046 193.682 19.5716C193.742 19.6386 193.818 19.6886 193.903 19.7166C196.41 20.8957 196.052 24.3375 195.772 27.142C195.772 27.7793 195.647 28.4167 195.6 28.9266C195.616 29.5173 195.765 30.0964 196.035 30.6188C196.305 31.1411 196.689 31.5927 197.158 31.9382C197.808 32.4711 198.344 33.1351 198.732 33.8889C199.121 34.6428 199.354 35.4703 199.416 36.3201C199.452 38.2318 198.847 40.0984 197.703 41.6103C197.64 41.6955 197.594 41.7935 197.57 41.8978C197.546 42.0021 197.543 42.1105 197.563 42.2158C197.643 42.4095 197.794 42.5637 197.983 42.646C199.114 43.0406 200.08 43.8158 200.725 44.8449C200.842 45.0934 200.903 45.3658 200.903 45.6417C200.903 45.9176 200.842 46.1899 200.725 46.4384C200.024 48.2868 200.725 48.8923 201.628 49.3862C202.531 49.8802 202.703 50.0236 202.485 51.6011C202.461 51.8347 202.388 52.0601 202.269 52.2612C202.151 52.4622 201.99 52.634 201.799 52.7643C199.993 54.1506 195.398 53.8638 193.778 53.6248C193.673 53.6178 193.568 53.6358 193.47 53.6772C193.373 53.7187 193.287 53.7825 193.217 53.8638C193.145 53.9374 193.094 54.0296 193.069 54.1307C193.045 54.2317 193.047 54.3378 193.077 54.4374C193.17 54.7072 193.19 54.9975 193.135 55.2778C193.08 55.5582 192.953 55.8183 192.766 56.0309C192.353 56.3629 191.873 56.5955 191.361 56.7114C190.848 56.8272 190.317 56.8234 189.806 56.7001C189.695 56.6767 189.58 56.6819 189.471 56.7152C189.363 56.7486 189.264 56.8091 189.183 56.8913C189.113 56.9723 189.063 57.0702 189.038 57.1759C189.014 57.2816 189.016 57.3919 189.043 57.4968C189.292 58.5963 189.043 59.3452 188.498 59.6957C188.187 59.8687 187.839 59.9592 187.486 59.9592C187.132 59.9592 186.784 59.8687 186.473 59.6957C186.285 59.4848 186.156 59.2262 186.1 58.9468C186.059 58.6886 185.962 58.4429 185.817 58.2279C185.671 58.0128 185.48 57.8338 185.258 57.7039C185.035 57.6025 184.794 57.55 184.55 57.55C184.306 57.55 184.064 57.6025 183.841 57.7039C182.86 58.1023 182.439 57.9908 182.284 57.8792C182.157 57.7634 182.056 57.6207 181.989 57.4611C181.922 57.3015 181.889 57.1288 181.894 56.955C181.885 56.8222 181.833 56.6964 181.745 56.5981C181.657 56.4997 181.54 56.4345 181.411 56.4133C181.302 56.4133 180.181 56.0946 180.01 54.1665C180.09 52.4845 180.818 50.9034 182.034 49.7686L182.346 49.3703L182.439 49.2269C182.98 48.6949 183.33 47.9917 183.432 47.2312C183.533 46.4707 183.381 45.6973 183 45.0362C182.902 44.8912 182.753 44.7916 182.583 44.7588C182.414 44.726 182.239 44.7627 182.097 44.8609C182.001 44.9093 181.921 44.9844 181.866 45.0775C181.811 45.1706 181.783 45.2779 181.785 45.3867C181.778 45.5134 181.816 45.6384 181.894 45.7373C182.082 46.0382 182.19 46.3844 182.206 46.7411C182.122 47.3415 181.855 47.8993 181.443 48.3346L181.302 48.5099L181.053 48.7967C179.716 50.1279 178.883 51.9004 178.701 53.8C178.701 53.9434 178.701 54.055 178.701 54.1984C178.69 54.8796 178.871 55.5497 179.221 56.1288C179.572 56.7079 180.078 57.1718 180.679 57.4649C180.718 57.7657 180.819 58.0545 180.974 58.3127C181.13 58.5708 181.337 58.7924 181.583 58.9628C182.013 59.1544 182.481 59.2439 182.95 59.2246C183.42 59.2053 183.878 59.0776 184.293 58.8512C184.417 58.8322 184.543 58.8322 184.667 58.8512C184.738 59.0013 184.8 59.1556 184.854 59.3133C184.974 59.7904 185.209 60.2288 185.539 60.5881C186.057 60.9614 186.668 61.1786 187.301 61.2153C187.934 61.2519 188.565 61.1064 189.121 60.7952C189.534 60.5464 189.872 60.1855 190.098 59.7525C190.323 59.3194 190.427 58.831 190.398 58.3413C190.413 58.2463 190.413 58.1495 190.398 58.0545C190.995 58.1081 191.596 58.0353 192.164 57.8406C192.732 57.646 193.255 57.3337 193.7 56.9232C194.178 56.4205 194.441 55.7442 194.432 55.0429C196.239 55.2182 200.507 55.4253 202.594 53.8M169.699 21.0232C168.844 20.9237 167.978 21.0745 167.204 21.4581C166.429 21.8417 165.776 22.4423 165.322 23.1902C165.252 23.3514 165.245 23.5341 165.303 23.7004C165.361 23.8666 165.479 24.0035 165.634 24.0825C165.711 24.1226 165.795 24.146 165.882 24.1516C165.968 24.1571 166.055 24.1446 166.137 24.1148C166.218 24.085 166.293 24.0385 166.356 23.9782C166.42 23.9179 166.471 23.845 166.506 23.7639C166.768 23.2598 167.2 22.8695 167.721 22.6644C167.704 22.7806 167.704 22.8988 167.721 23.015C167.712 23.3335 167.827 23.6426 168.04 23.8752C168.253 24.1079 168.546 24.2454 168.858 24.2578C169.17 24.2454 169.466 24.1085 169.681 23.8763C169.896 23.6441 170.015 23.335 170.01 23.015C170.002 22.7817 169.943 22.5533 169.839 22.3457C170.32 22.3592 170.786 22.5176 171.18 22.8011C171.573 23.0845 171.876 23.4804 172.051 23.9391C172.114 24.1048 172.235 24.2405 172.39 24.32C172.546 24.3995 172.724 24.4171 172.892 24.3694C173.054 24.3048 173.186 24.181 173.264 24.022C173.342 23.863 173.359 23.6802 173.312 23.5089C173.257 23.3885 173.194 23.2715 173.125 23.1584C173.521 22.5266 173.693 21.7745 173.61 21.0287C173.528 20.2829 173.197 19.5889 172.674 19.0632C171.116 17.2627 168.095 18.0116 165.945 18.5374C165.863 18.5595 165.786 18.5983 165.718 18.6513C165.651 18.7044 165.594 18.7707 165.552 18.8464C165.51 18.9221 165.483 19.0057 165.473 19.0922C165.463 19.1787 165.47 19.2663 165.494 19.3501C165.51 19.4352 165.543 19.5161 165.591 19.588C165.638 19.6599 165.699 19.7214 165.77 19.7689C165.841 19.8164 165.921 19.8488 166.005 19.8645C166.088 19.8801 166.174 19.8786 166.257 19.86C168.095 19.3501 170.633 18.7446 171.739 19.9875C172 20.2362 172.187 20.5544 172.281 20.9062C172.375 21.2581 172.37 21.6297 172.269 21.9793C171.53 21.4228 170.647 21.1014 169.73 21.055M183.748 60.4446C183.665 60.4608 183.587 60.4947 183.519 60.544C183.45 60.5934 183.392 60.6571 183.35 60.7309C183.307 60.8047 183.28 60.887 183.271 60.9723C183.262 61.0575 183.27 61.1438 183.296 61.2254C183.81 63.4562 183.748 64.4123 183.016 64.6991C181.583 65.4162 177.424 65.7986 172.409 65.7349C169.411 65.8294 166.416 65.4806 163.515 64.6991C165.351 59.3807 166.635 53.8797 167.347 48.2868L167.518 46.8686C168.834 47.3633 170.182 47.7627 171.552 48.0637C171.652 48.5563 171.699 49.0585 171.692 49.5615C171.644 51.0973 171.514 52.6293 171.303 54.1506C170.979 56.6823 170.792 59.2304 170.742 61.7831C170.742 62.3886 170.742 62.9623 170.82 63.5359C170.818 63.623 170.833 63.7097 170.866 63.7903C170.898 63.8709 170.947 63.9436 171.008 64.0037C171.07 64.0638 171.143 64.11 171.224 64.1392C171.304 64.1684 171.389 64.18 171.474 64.1733C171.645 64.165 171.806 64.0887 171.922 63.9606C172.039 63.8326 172.102 63.663 172.097 63.4881C172.001 60.425 172.168 57.3591 172.596 54.3259C172.938 51.2346 173.219 48.8126 172.596 47.251C172.559 47.1422 172.496 47.0451 172.411 46.9695C172.326 46.894 172.223 46.8427 172.113 46.8208C170.423 46.4539 168.762 45.9585 167.144 45.3389C167.055 45.2842 166.953 45.2553 166.849 45.2553C166.744 45.2553 166.642 45.2842 166.553 45.3389C166.469 45.3933 166.398 45.4656 166.344 45.5509C166.29 45.6362 166.255 45.7324 166.241 45.8329C166.241 45.8329 166.023 48.0796 166.023 48.1115C165.268 53.7008 163.969 59.1989 162.145 64.5238C162.123 64.6182 162.123 64.7163 162.145 64.8106C162.143 64.9555 162.174 65.0987 162.237 65.2288C162.299 65.3589 162.39 65.4722 162.503 65.5595C163.78 66.7387 170.384 66.9777 172.393 67.0255C174.403 67.0733 181.115 67.0255 183.592 65.8783C185.539 64.9222 184.869 62.4046 184.526 60.8749C184.505 60.7906 184.467 60.7116 184.415 60.6426C184.363 60.5735 184.298 60.5158 184.224 60.4727C184.15 60.4297 184.069 60.4022 183.984 60.3919C183.9 60.3816 183.814 60.3887 183.732 60.4128M180.975 46.6455C180.91 46.4882 180.787 46.3634 180.632 46.2979C180.478 46.2324 180.305 46.2313 180.15 46.295C178.352 46.9243 176.458 47.2158 174.558 47.1554C174.389 47.1554 174.226 47.2243 174.107 47.3468C173.987 47.4693 173.92 47.6355 173.92 47.8088C173.92 47.982 173.987 48.1482 174.107 48.2707C174.226 48.3932 174.389 48.4621 174.558 48.4621C176.621 48.5354 178.68 48.2222 180.633 47.5378C180.79 47.4614 180.913 47.3267 180.976 47.161C181.04 46.9953 181.04 46.811 180.975 46.6455ZM179.932 18.4737C179.359 18.7693 178.865 19.2017 178.491 19.7343C178.117 20.2669 177.874 20.8839 177.782 21.533C177.758 23.5323 178.212 25.5074 179.106 27.2854C179.651 28.6079 180.212 29.9942 179.869 30.4722C179.527 30.9502 179.106 31.1574 178.032 30.9343C177.069 30.6729 176.048 30.7515 175.134 31.1574C174.799 31.2932 174.426 31.2932 174.091 31.1574C173.928 31.0405 173.816 30.8633 173.779 30.6634C173.858 30.5975 173.92 30.5148 173.963 30.4211C174.007 30.3274 174.029 30.2252 174.029 30.1217C174.029 29.9442 173.96 29.7739 173.837 29.6484C173.714 29.5229 173.548 29.4524 173.375 29.4524C173.288 29.4467 173.202 29.4626 173.124 29.4987C173.045 29.5348 172.976 29.59 172.923 29.6596C172.794 29.7618 172.69 29.8921 172.617 30.041C172.545 30.1899 172.505 30.3536 172.502 30.52C172.493 30.8405 172.557 31.1586 172.69 31.4491C172.822 31.7397 173.02 31.9944 173.266 32.1931C173.605 32.4252 173.999 32.5609 174.407 32.5861C174.815 32.6113 175.222 32.5252 175.586 32.3366C176.264 32.0278 177.03 31.988 177.736 32.225C178.299 32.441 178.918 32.4494 179.486 32.2487C180.055 32.0481 180.537 31.6509 180.851 31.1255C181.048 30.7954 181.146 30.4128 181.131 30.0261C181.005 28.8752 180.689 27.7545 180.196 26.7117C179.495 25.2777 179.067 23.7204 178.935 22.1227V21.6287C179.007 21.1833 179.176 20.7601 179.429 20.3905C179.683 20.0209 180.014 19.7143 180.399 19.4935C182.237 18.6171 185.071 19.9556 185.071 19.9556C185.188 20.0191 185.321 20.044 185.452 20.0269C185.584 20.0098 185.706 19.9514 185.804 19.86C185.901 19.7734 185.97 19.6579 186.001 19.5294C186.032 19.4009 186.023 19.2658 185.975 19.1429C185.353 17.4773 184.975 15.7269 184.854 13.9483C184.845 13.7764 184.773 13.6143 184.651 13.4956C184.529 13.3769 184.368 13.3108 184.199 13.311C184.031 13.3267 183.875 13.4052 183.76 13.5317C183.645 13.6581 183.579 13.8235 183.576 13.9961C183.664 15.456 183.92 16.9001 184.339 18.2984C182.908 17.7245 181.317 17.7245 179.885 18.2984M165.198 14.4264C166.002 14.4743 166.804 14.3088 167.527 13.9459C168.251 13.5829 168.87 13.0349 169.325 12.3549C170.116 13.218 171.171 13.78 172.315 13.9483C173.441 13.8703 174.492 13.344 175.244 12.4824C176.104 13.2786 177.201 13.7556 178.359 13.8368C178.915 13.8123 179.458 13.6556 179.944 13.379C180.431 13.1024 180.848 12.7136 181.162 12.2434C181.544 12.5831 181.962 12.8771 182.408 13.1197C182.48 13.1648 182.56 13.1945 182.644 13.2068C182.728 13.2192 182.813 13.214 182.894 13.1917C182.976 13.1693 183.052 13.1302 183.119 13.0767C183.185 13.0233 183.24 12.9566 183.28 12.8807C183.365 12.7307 183.388 12.5524 183.344 12.3851C183.3 12.2177 183.193 12.0751 183.047 11.9884C182.498 11.7431 182.036 11.3316 181.723 10.8093C181.664 10.7069 181.579 10.6221 181.478 10.5631C181.377 10.5042 181.263 10.4732 181.147 10.4732C181.03 10.4732 180.916 10.5042 180.815 10.5631C180.714 10.6221 180.63 10.7069 180.57 10.8093C179.916 11.9884 179.184 12.5143 178.359 12.5143C177.313 12.3832 176.342 11.8947 175.602 11.1279C175.535 11.0588 175.455 11.0047 175.366 10.9691C175.278 10.9334 175.183 10.917 175.088 10.9208C174.992 10.9292 174.898 10.9593 174.815 11.0089C174.731 11.0585 174.66 11.1264 174.605 11.2076C174.331 11.5877 173.986 11.9086 173.591 12.152C173.195 12.3954 172.756 12.5564 172.3 12.6258C171.279 12.3918 170.37 11.8 169.73 10.9527C169.669 10.8723 169.592 10.8074 169.502 10.7631C169.413 10.7189 169.315 10.6965 169.216 10.6977C169.112 10.6989 169.009 10.7256 168.917 10.7755C168.825 10.8254 168.746 10.897 168.686 10.9845C168.281 11.6219 167.129 13.1198 165.805 13.1994C165.021 9.5681 163.98 5.99997 162.69 2.52343H163.033C163.513 2.49253 163.994 2.58408 164.432 2.78986C164.869 2.99564 165.25 3.30926 165.54 3.7026C165.609 3.80321 165.704 3.88292 165.813 3.93339C165.923 3.98385 166.044 4.0032 166.163 3.9894C166.279 3.95648 166.386 3.89805 166.478 3.81824C166.569 3.73842 166.643 3.63912 166.693 3.5273C166.895 2.81025 168.531 1.93386 170.228 2.02947C170.939 2.10426 171.62 2.361 172.208 2.77595C172.796 3.1909 173.272 3.75068 173.593 4.40366C173.672 4.55879 173.808 4.67574 173.971 4.72937C174.134 4.783 174.312 4.76907 174.465 4.69052C174.616 4.60042 174.727 4.45321 174.774 4.28044C174.82 4.10768 174.799 3.92309 174.714 3.7663C174.285 2.9124 173.652 2.18379 172.873 1.64871C172.093 1.11363 171.194 0.789613 170.26 0.706941C168.688 0.646624 167.156 1.21865 165.992 2.30037C165.565 1.92692 165.07 1.64434 164.535 1.46923C164 1.29412 163.436 1.22997 162.877 1.28055C162.476 1.3264 162.081 1.40634 161.693 1.51956C161.622 1.53468 161.553 1.56162 161.491 1.59926C161.405 1.6567 161.335 1.73471 161.286 1.8264C161.237 1.91809 161.211 2.02063 161.21 2.12507C161.192 2.21978 161.192 2.31716 161.21 2.41188C161.21 2.41188 161.21 2.41188 161.288 2.41188C162.734 6.14517 163.88 9.99276 164.715 13.9164C164.751 14.0421 164.818 14.1556 164.912 14.2453C165.005 14.3349 165.12 14.3974 165.244 14.4264M179.075 63.5041C179.109 63.5805 179.157 63.6494 179.217 63.7068C179.276 63.7643 179.347 63.809 179.423 63.8386C179.5 63.8682 179.581 63.8821 179.663 63.8794C179.745 63.8766 179.826 63.8574 179.901 63.8227C180.055 63.7526 180.178 63.6237 180.242 63.4633C180.305 63.3028 180.306 63.1232 180.243 62.9622C179.958 61.8662 179.827 60.7341 179.854 59.6001V59.2814C179.852 59.1956 179.833 59.1111 179.799 59.0326C179.765 58.9541 179.717 58.8833 179.656 58.8241C179.595 58.7649 179.524 58.7185 179.445 58.6876C179.367 58.6567 179.284 58.6419 179.2 58.6441C179.029 58.6482 178.866 58.7206 178.747 58.8456C178.628 58.9707 178.561 59.1386 178.561 59.3133V59.6001C178.485 60.9952 178.653 62.393 179.059 63.7271" fill="#1F307D"/>
<path d="M87.572 18.6964C87.3132 18.6942 87.0621 18.6058 86.8568 18.4447C86.6515 18.2835 86.5031 18.0584 86.4341 17.8033L85.3227 14.7182H77.3835L76.2721 17.8033C76.2169 18.0609 76.0757 18.2909 75.873 18.4538C75.6702 18.6168 75.4183 18.7025 75.1605 18.6964C75.0185 18.7114 74.8751 18.6961 74.7392 18.6516C74.6033 18.607 74.4779 18.5341 74.371 18.4374C74.264 18.3408 74.178 18.2225 74.118 18.09C74.058 17.9576 74.0255 17.8139 74.0226 17.668C74.0613 17.343 74.1414 17.0246 74.2608 16.7208V16.5314L79.5536 1.86354C79.9241 0.970473 80.4534 0.483322 81.2208 0.483322C81.5994 0.494708 81.9629 0.637633 82.2515 0.8885C82.5401 1.13937 82.7366 1.48324 82.8086 1.86354L88.1013 16.7208C88.2331 17.0203 88.3138 17.3407 88.3396 17.668C88.3404 17.8127 88.3113 17.9558 88.2543 18.0882C88.1973 18.2206 88.1135 18.3393 88.0086 18.4363C87.9037 18.5334 87.78 18.6067 87.6455 18.6515C87.511 18.6963 87.3686 18.7116 87.228 18.6964M77.8334 12.6073H84.264L81.0885 3.37903L77.8334 12.6073ZM102.868 18.6964C103.636 18.6964 103.98 18.2904 103.98 17.3162V1.75526C104.005 1.58198 103.994 1.40514 103.946 1.23677C103.899 1.06841 103.816 0.912528 103.705 0.779731C103.593 0.646935 103.454 0.540348 103.298 0.4673C103.143 0.394252 102.973 0.356384 102.802 0.356384C102.631 0.356384 102.461 0.394252 102.306 0.4673C102.15 0.540348 102.011 0.646935 101.9 0.779731C101.788 0.912528 101.705 1.06841 101.658 1.23677C101.61 1.40514 101.599 1.58198 101.624 1.75526V14.3664L92.9972 1.67408C92.3621 0.781016 92.0709 0.483322 91.4093 0.483322C90.7477 0.483322 90.2979 0.970473 90.2979 1.86354V17.4515C90.2724 17.6248 90.2838 17.8017 90.3313 17.97C90.3788 18.1384 90.4611 18.2943 90.5729 18.4271C90.6847 18.5599 90.8233 18.6665 90.979 18.7395C91.1348 18.8126 91.3042 18.8503 91.4755 18.8503C91.6469 18.8503 91.8161 18.8126 91.9719 18.7395C92.1276 18.6665 92.2662 18.5599 92.378 18.4271C92.4897 18.2943 92.5723 18.1384 92.6197 17.97C92.6672 17.8017 92.6787 17.6248 92.6532 17.4515V4.89452L101.28 17.5056C101.863 18.3987 102.207 18.6964 102.868 18.6964ZM111.257 18.6964C111.417 18.705 111.576 18.6782 111.725 18.6179C111.874 18.5576 112.008 18.4652 112.119 18.347C112.229 18.2288 112.313 18.0876 112.366 17.933C112.418 17.7785 112.437 17.6142 112.422 17.4515V2.94602H115.544C115.706 2.97153 115.872 2.96088 116.03 2.9148C116.188 2.86872 116.334 2.78834 116.458 2.67909C116.583 2.56985 116.683 2.43429 116.751 2.28184C116.82 2.1294 116.855 1.96367 116.855 1.7959C116.855 1.62812 116.82 1.46231 116.751 1.30986C116.683 1.15742 116.583 1.02194 116.458 0.912698C116.334 0.803452 116.188 0.722987 116.03 0.676909C115.872 0.63083 115.706 0.620179 115.544 0.645691H107.288C107.125 0.620179 106.96 0.63083 106.802 0.676909C106.644 0.722987 106.498 0.803452 106.374 0.912698C106.249 1.02194 106.149 1.15742 106.081 1.30986C106.012 1.46231 105.977 1.62812 105.977 1.7959C105.977 1.96367 106.012 2.1294 106.081 2.28184C106.149 2.43429 106.249 2.56985 106.374 2.67909C106.498 2.78834 106.644 2.86872 106.802 2.9148C106.96 2.96088 107.125 2.97153 107.288 2.94602H110.463V17.5056C110.447 17.6708 110.467 17.8376 110.521 17.9942C110.575 18.1507 110.661 18.2934 110.775 18.4121C110.888 18.5307 111.026 18.6225 111.178 18.681C111.33 18.7394 111.492 18.7632 111.654 18.7505M124.886 18.7505C119.832 18.7505 117.238 14.177 117.238 9.65754C117.238 5.13811 119.884 0.537418 124.886 0.537418C129.888 0.537418 132.64 5.11105 132.64 9.65754C132.741 10.7807 132.619 11.9132 132.28 12.9865C131.94 14.0598 131.392 15.0516 130.667 15.9017C129.942 16.7518 129.056 17.4426 128.062 17.9323C127.068 18.422 125.988 18.7003 124.886 18.7505ZM124.886 2.64837C121.049 2.64837 119.593 6.27473 119.593 9.65754C119.593 13.0404 120.943 16.6396 124.886 16.6396C128.829 16.6396 130.179 13.0133 130.179 9.65754C130.179 6.3018 128.803 2.64837 124.886 2.64837ZM147.91 18.7505C148.624 18.7505 148.968 18.3445 148.968 17.3703V1.80936C148.988 1.64447 148.972 1.47724 148.921 1.31936C148.871 1.16148 148.787 1.01686 148.676 0.895602C148.565 0.77435 148.429 0.679399 148.279 0.617528C148.128 0.555657 147.966 0.528297 147.804 0.537418C147.641 0.528902 147.478 0.556435 147.326 0.618106C147.174 0.679777 147.037 0.774181 146.924 0.894859C146.811 1.01554 146.725 1.15966 146.671 1.31746C146.617 1.47527 146.597 1.64303 146.613 1.80936V14.4205L138.012 1.72817C137.403 0.835111 137.112 0.537418 136.398 0.537418C135.683 0.537418 135.339 1.02457 135.339 1.91763V17.5056C135.323 17.6708 135.343 17.8376 135.397 17.9942C135.451 18.1507 135.537 18.2934 135.651 18.4121C135.764 18.5307 135.902 18.6225 136.054 18.681C136.206 18.7394 136.368 18.7632 136.53 18.7505C136.69 18.7591 136.85 18.7323 136.998 18.672C137.147 18.6117 137.281 18.5192 137.391 18.4011C137.502 18.2829 137.586 18.1418 137.639 17.9872C137.691 17.8327 137.71 17.6684 137.694 17.5056V4.94862L146.322 17.5597C146.904 18.4528 147.222 18.7505 147.91 18.7505ZM153.652 18.7505C153.813 18.7639 153.975 18.7404 154.126 18.6818C154.277 18.6231 154.413 18.5308 154.524 18.4116C154.636 18.2923 154.72 18.1491 154.77 17.9923C154.821 17.8356 154.837 17.6694 154.817 17.5056V1.80936C154.842 1.6398 154.831 1.4667 154.785 1.30185C154.738 1.13701 154.658 0.984377 154.549 0.854308C154.439 0.72424 154.304 0.619798 154.151 0.548237C153.999 0.476675 153.833 0.439633 153.665 0.439633C153.498 0.439633 153.332 0.476675 153.18 0.548237C153.027 0.619798 152.892 0.72424 152.782 0.854308C152.673 0.984377 152.593 1.13701 152.546 1.30185C152.5 1.4667 152.489 1.6398 152.514 1.80936V17.5056C152.495 17.667 152.51 17.8307 152.559 17.9853C152.608 18.1399 152.69 18.2817 152.798 18.4004C152.907 18.5192 153.04 18.6121 153.187 18.6726C153.335 18.7331 153.494 18.7597 153.652 18.7505ZM7.70424 66.8135C7.9729 66.7712 8.21792 66.632 8.39491 66.421C8.5719 66.2101 8.66918 65.9413 8.66918 65.6633C8.66918 65.3853 8.5719 65.1166 8.39491 64.9056C8.21792 64.6947 7.9729 64.5554 7.70424 64.5132H3.23185V49.9806C3.23185 49.8207 3.20108 49.6623 3.14124 49.5146C3.08139 49.3668 2.99371 49.2326 2.88312 49.1195C2.77254 49.0064 2.64125 48.9167 2.49676 48.8555C2.35228 48.7943 2.1975 48.7628 2.04111 48.7628C1.88472 48.7628 1.72978 48.7943 1.58529 48.8555C1.44081 48.9167 1.30951 49.0064 1.19893 49.1195C1.08835 49.2326 1.00066 49.3668 0.940818 49.5146C0.880971 49.6623 0.850204 49.8207 0.850204 49.9806V65.4874C0.830206 65.6618 0.848202 65.8387 0.90286 66.0051C0.957518 66.1716 1.04743 66.3236 1.1663 66.4504C1.28517 66.5771 1.42992 66.6754 1.5903 66.7382C1.75067 66.801 1.92268 66.8267 2.09393 66.8135H7.70424ZM17.9722 66.8135C18.1344 66.839 18.3 66.8284 18.4578 66.7823C18.6155 66.7362 18.7617 66.6557 18.8863 66.5465C19.0108 66.4372 19.1107 66.3018 19.1793 66.1493C19.2478 65.9969 19.2833 65.8311 19.2833 65.6633C19.2833 65.4955 19.2478 65.3298 19.1793 65.1773C19.1107 65.0249 19.0108 64.8893 18.8863 64.7801C18.7617 64.6709 18.6155 64.5905 18.4578 64.5444C18.3 64.4983 18.1344 64.4877 17.9722 64.5132H12.9705V58.9654H17.5754C17.844 58.9231 18.0889 58.7839 18.2659 58.5729C18.4429 58.362 18.5401 58.0932 18.5401 57.8152C18.5401 57.5372 18.4429 57.2685 18.2659 57.0575C18.0889 56.8466 17.844 56.7073 17.5754 56.6651H12.9705V51.1172H17.9722C18.1344 51.1427 18.3 51.1321 18.4578 51.086C18.6155 51.0399 18.7617 50.9595 18.8863 50.8503C19.0108 50.741 19.1107 50.6056 19.1793 50.4531C19.2478 50.3007 19.2833 50.1349 19.2833 49.9671C19.2833 49.7993 19.2478 49.6335 19.1793 49.4811C19.1107 49.3286 19.0108 49.1931 18.8863 49.0839C18.7617 48.9746 18.6155 48.8943 18.4578 48.8482C18.3 48.8021 18.1344 48.7915 17.9722 48.817H11.8326C11.6625 48.8085 11.4927 48.8375 11.3345 48.9019C11.1762 48.9663 11.0334 49.0647 10.9155 49.1903C10.7976 49.316 10.7074 49.466 10.6511 49.6304C10.5947 49.7947 10.5735 49.9696 10.5889 50.143V65.4874C10.5689 65.6618 10.5869 65.8387 10.6415 66.0051C10.6962 66.1716 10.7861 66.3236 10.905 66.4504C11.0238 66.5771 11.1687 66.6754 11.3291 66.7382C11.4895 66.801 11.6613 66.8267 11.8326 66.8135H17.9722ZM29.0606 66.8135C29.2227 66.839 29.3883 66.8284 29.5461 66.7823C29.7039 66.7362 29.8501 66.6557 29.9746 66.5465C30.0991 66.4372 30.1991 66.3018 30.2676 66.1493C30.3361 65.9969 30.3716 65.8311 30.3716 65.6633C30.3716 65.4955 30.3361 65.3298 30.2676 65.1773C30.1991 65.0249 30.0991 64.8893 29.9746 64.7801C29.8501 64.6709 29.7039 64.5905 29.5461 64.5444C29.3883 64.4983 29.2227 64.4877 29.0606 64.5132H24.006V58.9654H28.6107C28.8794 58.9231 29.1244 58.7839 29.3014 58.5729C29.4784 58.362 29.5757 58.0932 29.5757 57.8152C29.5757 57.5372 29.4784 57.2685 29.3014 57.0575C29.1244 56.8466 28.8794 56.7073 28.6107 56.6651H24.006V51.1172H29.0606C29.2227 51.1427 29.3883 51.1321 29.5461 51.086C29.7039 51.0399 29.8501 50.9595 29.9746 50.8503C30.0991 50.741 30.1991 50.6056 30.2676 50.4531C30.3361 50.3007 30.3716 50.1349 30.3716 49.9671C30.3716 49.7993 30.3361 49.6335 30.2676 49.4811C30.1991 49.3286 30.0991 49.1931 29.9746 49.0839C29.8501 48.9746 29.7039 48.8943 29.5461 48.8482C29.3883 48.8021 29.2227 48.7915 29.0606 48.817H22.8681C22.698 48.8085 22.528 48.8375 22.3698 48.9019C22.2116 48.9663 22.0687 49.0647 21.9508 49.1903C21.8329 49.316 21.7428 49.466 21.6864 49.6304C21.6301 49.7947 21.6089 49.9696 21.6242 50.143V65.4874C21.6042 65.6618 21.6222 65.8387 21.6769 66.0051C21.7315 66.1716 21.8215 66.3236 21.9403 66.4504C22.0592 66.5771 22.2041 66.6754 22.3645 66.7382C22.5249 66.801 22.6969 66.8267 22.8681 66.8135H29.0606ZM39.355 66.8135C40.2976 66.9182 41.251 66.8011 42.1426 66.4713C43.0341 66.1414 43.84 65.6075 44.4989 64.9103C45.1577 64.213 45.652 63.3709 45.9438 62.4485C46.2357 61.526 46.3174 60.5475 46.1827 59.5878V49.8724C46.2082 49.6991 46.1968 49.5222 46.1493 49.3539C46.1018 49.1855 46.0193 49.0296 45.9075 48.8968C45.7957 48.764 45.6572 48.6574 45.5014 48.5844C45.3457 48.5113 45.1764 48.4735 45.0051 48.4735C44.8337 48.4735 44.6643 48.5113 44.5086 48.5844C44.3528 48.6574 44.2143 48.764 44.1025 48.8968C43.9907 49.0296 43.9083 49.1855 43.8609 49.3539C43.8134 49.5222 43.8019 49.6991 43.8274 49.8724V60.4267C43.7405 61.5824 43.2302 62.662 42.3986 63.4496C41.567 64.2372 40.4753 64.6748 39.3418 64.6748C38.2083 64.6748 37.1166 64.2372 36.285 63.4496C35.4533 62.662 34.943 61.5824 34.8561 60.4267V49.8724C34.8795 49.7113 34.868 49.547 34.8224 49.391C34.7767 49.2351 34.6981 49.0914 34.5921 48.97C34.486 48.8486 34.355 48.7526 34.2086 48.6887C34.0622 48.6248 33.9038 48.5947 33.7447 48.6004C33.5804 48.5871 33.4153 48.6113 33.2613 48.6714C33.1072 48.7314 32.9681 48.8257 32.8541 48.9475C32.7401 49.0692 32.654 49.2154 32.6021 49.3753C32.5502 49.5353 32.5337 49.7051 32.5538 49.8724V59.7772C32.4199 60.7345 32.5013 61.7103 32.7917 62.6306C33.0821 63.5508 33.5739 64.3912 34.2296 65.0879C34.8853 65.7846 35.6877 66.3191 36.5759 66.651C37.464 66.9828 38.4145 67.1032 39.355 67.003M63.1725 67.003C63.3776 67.0177 63.5835 66.9908 63.7785 66.9238C63.9734 66.8569 64.1535 66.7513 64.3084 66.613C64.4634 66.4747 64.5901 66.3065 64.6812 66.1179C64.7724 65.9294 64.8263 65.7243 64.8397 65.5145L67.4861 51.009C67.5073 50.6305 67.5073 50.2509 67.4861 49.8724C67.4946 49.7232 67.4712 49.574 67.4176 49.4351C67.364 49.2961 67.2814 49.1706 67.1756 49.0676C67.0698 48.9646 66.9434 48.8864 66.8051 48.8384C66.6667 48.7905 66.5199 48.7739 66.3746 48.7899C66.223 48.7751 66.0699 48.7915 65.9246 48.8383C65.7794 48.885 65.6447 48.9611 65.5287 49.0621C65.4128 49.163 65.3178 49.2868 65.2495 49.426C65.1811 49.5652 65.1407 49.7169 65.1308 49.8724L62.9607 63.8095L58.9911 49.7641C58.9578 49.4793 58.818 49.2187 58.6009 49.0371C58.3838 48.8554 58.1063 48.7669 57.8267 48.7899C57.5442 48.7663 57.2636 48.8541 57.0422 49.0352C56.8208 49.2163 56.6754 49.477 56.6358 49.7641L52.7457 63.7554L50.4963 49.8724C50.4902 49.7156 50.4522 49.5618 50.3851 49.4208C50.3179 49.2797 50.2229 49.1544 50.1061 49.0528C49.9893 48.9511 49.8531 48.8752 49.7062 48.8299C49.5593 48.7847 49.4048 48.7711 49.2525 48.7899C49.1104 48.7775 48.9674 48.7971 48.8335 48.8471C48.6996 48.8971 48.578 48.9764 48.4772 49.0795C48.3763 49.1826 48.2988 49.307 48.2499 49.444C48.201 49.5809 48.1818 49.7271 48.1938 49.8724C48.1784 50.256 48.2232 50.6398 48.3263 51.009L50.9727 65.5145C50.9999 65.9333 51.1873 66.3243 51.4944 66.6029C51.8015 66.8815 52.2035 67.0252 52.6134 67.003C53.5132 67.003 54.0424 66.7864 54.3865 65.5145L57.8797 52.714L61.3464 65.5145C61.7169 66.7864 62.2991 67.003 63.1195 67.003M77.463 67.003C77.7316 66.9607 77.9765 66.8215 78.1535 66.6105C78.3305 66.3995 78.4278 66.1307 78.4278 65.8528C78.4278 65.5748 78.3305 65.3061 78.1535 65.0951C77.9765 64.8841 77.7316 64.7449 77.463 64.7026H72.3818V58.9654H76.9865C77.1487 58.9909 77.3144 58.9803 77.4722 58.9342C77.6299 58.8881 77.776 58.8076 77.9005 58.6984C78.0251 58.5891 78.125 58.4537 78.1936 58.3012C78.2621 58.1488 78.2976 57.983 78.2976 57.8152C78.2976 57.6474 78.2621 57.4816 78.1936 57.3292C78.125 57.1767 78.0251 57.0412 77.9005 56.932C77.776 56.8227 77.6299 56.7424 77.4722 56.6963C77.3144 56.6502 77.1487 56.6396 76.9865 56.6651H72.3818V51.1172H77.463C77.7316 51.0749 77.9765 50.9358 78.1535 50.7248C78.3305 50.5139 78.4278 50.2451 78.4278 49.9671C78.4278 49.6891 78.3305 49.4203 78.1535 49.2093C77.9765 48.9984 77.7316 48.8592 77.463 48.817H71.3234C71.15 48.805 70.9762 48.831 70.8136 48.8934C70.651 48.9558 70.5032 49.0531 70.3804 49.1787C70.2576 49.3043 70.1625 49.4554 70.1014 49.6217C70.0404 49.788 70.0148 49.9658 70.0265 50.143V65.4874C70.0102 65.6657 70.0325 65.8455 70.0919 66.014C70.1513 66.1824 70.2464 66.3355 70.3702 66.4621C70.494 66.5887 70.6437 66.6859 70.8084 66.7466C70.9732 66.8073 71.149 66.8302 71.3234 66.8135L77.463 67.003ZM93.6852 67.003C94.4526 67.003 94.8232 66.597 94.8232 65.6227V50.0618C94.8386 49.8955 94.8187 49.7277 94.7651 49.5699C94.7114 49.4121 94.6253 49.2679 94.5123 49.1472C94.3993 49.0266 94.2621 48.9322 94.1103 48.8706C93.9584 48.8089 93.7955 48.7814 93.6323 48.7899C93.4702 48.7808 93.308 48.8081 93.1573 48.87C93.0066 48.9319 92.8708 49.0267 92.7598 49.148C92.6488 49.2692 92.5652 49.4139 92.5148 49.5717C92.4643 49.7296 92.4483 49.8969 92.4679 50.0618V62.4835L83.9995 49.8994C83.3379 49.0064 83.0468 48.7087 82.4117 48.7087C81.7766 48.7087 81.2736 49.1958 81.2736 50.0889V65.6768C81.2736 65.8368 81.3045 65.9951 81.3644 66.1429C81.4242 66.2906 81.5119 66.4249 81.6225 66.538C81.7331 66.6511 81.8644 66.7407 82.0089 66.8019C82.1534 66.8631 82.3081 66.8947 82.4645 66.8947C82.6209 66.8947 82.7759 66.8631 82.9203 66.8019C83.0648 66.7407 83.1961 66.6511 83.3067 66.538C83.4173 66.4249 83.505 66.2906 83.5648 66.1429C83.6247 65.9951 83.6554 65.8368 83.6554 65.6768V53.1199L92.2562 65.731C92.8648 66.6241 93.2088 66.9218 93.8439 66.9218M110.913 66.9218C111.628 66.9218 112.104 66.4617 112.104 65.5416V50.143C112.104 49.2499 111.628 48.7087 110.913 48.7087C110.199 48.7087 109.722 49.2499 109.722 50.143V56.7463H100.83V50.143C100.83 49.2499 100.354 48.7087 99.6395 48.7087C98.925 48.7087 98.4488 49.2499 98.4488 50.143V65.5416C98.4488 66.4617 98.8721 66.9218 99.6395 66.9218C100.407 66.9218 100.83 66.4617 100.83 65.5416V58.8571H109.722V65.5416C109.722 66.4617 110.146 66.9218 110.913 66.9218ZM122.372 66.9218C117.291 66.9218 114.645 62.3482 114.645 57.8287C114.645 53.3093 117.291 48.7087 122.372 48.7087C127.453 48.7087 130.047 53.2822 130.047 57.8287C130.047 62.3752 127.4 66.9218 122.372 66.9218ZM122.372 50.8196C118.535 50.8196 117.079 54.4459 117.079 57.8287C117.079 61.2115 118.429 64.8108 122.372 64.8108C126.315 64.8108 127.665 61.2115 127.665 57.8287C127.665 54.4459 126.315 50.8196 122.372 50.8196ZM140.182 66.8135C140.344 66.839 140.51 66.8284 140.668 66.7823C140.825 66.7362 140.972 66.6557 141.096 66.5465C141.221 66.4372 141.321 66.3018 141.389 66.1493C141.458 65.9969 141.493 65.8311 141.493 65.6633C141.493 65.4955 141.458 65.3298 141.389 65.1773C141.321 65.0249 141.221 64.8893 141.096 64.7801C140.972 64.6709 140.825 64.5905 140.668 64.5444C140.51 64.4983 140.344 64.4877 140.182 64.5132H135.128V58.9654H139.732C139.894 58.9909 140.06 58.9803 140.218 58.9342C140.376 58.8881 140.522 58.8076 140.646 58.6984C140.771 58.5891 140.871 58.4537 140.939 58.3012C141.008 58.1488 141.043 57.983 141.043 57.8152C141.043 57.6474 141.008 57.4816 140.939 57.3292C140.871 57.1767 140.771 57.0412 140.646 56.932C140.522 56.8227 140.376 56.7424 140.218 56.6963C140.06 56.6502 139.894 56.6396 139.732 56.6651H135.128V51.1172H140.182C140.344 51.1427 140.51 51.1321 140.668 51.086C140.825 51.0399 140.972 50.9595 141.096 50.8503C141.221 50.741 141.321 50.6056 141.389 50.4531C141.458 50.3007 141.493 50.1349 141.493 49.9671C141.493 49.7993 141.458 49.6335 141.389 49.4811C141.321 49.3286 141.221 49.1931 141.096 49.0839C140.972 48.9746 140.825 48.8943 140.668 48.8482C140.51 48.8021 140.344 48.7915 140.182 48.817H134.042C133.873 48.8079 133.704 48.8368 133.547 48.9014C133.39 48.966 133.249 49.0648 133.133 49.1911C133.017 49.3173 132.929 49.4679 132.876 49.6323C132.823 49.7967 132.806 49.971 132.825 50.143V65.4874C132.801 65.6603 132.815 65.8367 132.866 66.0033C132.917 66.1699 133.005 66.3226 133.122 66.45C133.239 66.5774 133.382 66.6762 133.542 66.7391C133.701 66.802 133.872 66.8275 134.042 66.8135H140.182ZM155.24 66.8135C155.388 66.8245 155.537 66.805 155.678 66.7562C155.818 66.7074 155.948 66.6303 156.059 66.5294C156.17 66.4285 156.26 66.3058 156.324 66.1687C156.388 66.0315 156.424 65.8828 156.431 65.731C156.425 65.5469 156.379 65.3665 156.297 65.2027C156.214 65.0389 156.098 64.8958 155.955 64.7838L148.28 57.1793L155.293 50.7113C155.449 50.5811 155.574 50.4155 155.656 50.2276C155.739 50.0397 155.778 49.8347 155.769 49.6288C155.77 49.4891 155.742 49.3507 155.688 49.2223C155.634 49.0939 155.555 48.978 155.456 48.8818C155.357 48.7856 155.24 48.711 155.112 48.6626C154.984 48.6142 154.847 48.5931 154.711 48.6004C154.234 48.6004 153.89 48.9523 153.467 49.3312L146.216 56.0697V49.8724C146.241 49.6991 146.23 49.5222 146.182 49.3539C146.135 49.1855 146.052 49.0296 145.941 48.8968C145.829 48.764 145.69 48.6574 145.535 48.5844C145.379 48.5113 145.21 48.4735 145.038 48.4735C144.867 48.4735 144.697 48.5113 144.542 48.5844C144.386 48.6574 144.248 48.764 144.136 48.8968C144.024 49.0296 143.942 49.1855 143.894 49.3539C143.847 49.5222 143.835 49.6991 143.861 49.8724V65.5686C143.835 65.7419 143.847 65.9188 143.894 66.0871C143.942 66.2555 144.024 66.4114 144.136 66.5442C144.248 66.677 144.386 66.7836 144.542 66.8566C144.697 66.9297 144.867 66.9674 145.038 66.9674C145.21 66.9674 145.379 66.9297 145.535 66.8566C145.69 66.7836 145.829 66.677 145.941 66.5442C146.052 66.4114 146.135 66.2555 146.182 66.0871C146.23 65.9188 146.241 65.7419 146.216 65.5686V58.37L154.155 66.4888C154.301 66.6378 154.474 66.7553 154.665 66.8343C154.856 66.9134 155.061 66.9523 155.267 66.9488M118.561 43.1067C119.382 43.1067 119.673 42.5114 119.911 41.8619L125.204 26.761C125.302 26.4925 125.356 26.2088 125.362 25.922C125.363 25.7823 125.335 25.6441 125.281 25.5156C125.227 25.3872 125.148 25.2713 125.049 25.175C124.95 25.0788 124.833 25.0042 124.705 24.9558C124.577 24.9075 124.44 24.8863 124.304 24.8937C123.43 24.8937 123.192 25.5432 122.901 26.4092L118.588 39.1285L114.221 26.2739C113.983 25.5432 113.745 24.8937 112.845 24.8937C112.709 24.8863 112.572 24.9075 112.444 24.9558C112.316 25.0042 112.199 25.0788 112.1 25.175C112 25.2713 111.922 25.3872 111.868 25.5156C111.814 25.6441 111.786 25.7823 111.786 25.922C111.804 26.21 111.867 26.4932 111.972 26.761L117.265 41.8619C117.476 42.5114 117.794 43.1067 118.614 43.1067M138.33 43.1067C138.071 43.1046 137.82 43.0162 137.615 42.8551C137.409 42.694 137.261 42.4688 137.192 42.2137L136.08 39.1285H128.141L127.03 42.2137C126.974 42.4713 126.833 42.7012 126.631 42.8642C126.428 43.0271 126.176 43.1128 125.918 43.1067C125.778 43.1216 125.637 43.1071 125.503 43.0642C125.369 43.0213 125.245 42.9507 125.138 42.857C125.032 42.7632 124.945 42.6483 124.883 42.519C124.822 42.3898 124.787 42.249 124.78 42.1054C124.815 41.771 124.896 41.4431 125.018 41.1311V40.9959L130.311 26.2739C130.682 25.3808 131.211 24.8937 131.978 24.8937C132.357 24.905 132.72 25.048 133.009 25.2988C133.298 25.5497 133.494 25.8936 133.566 26.2739L138.991 41.1311C139.126 41.439 139.207 41.7689 139.229 42.1054C139.227 42.2478 139.195 42.388 139.136 42.5171C139.077 42.6463 138.993 42.7616 138.889 42.8558C138.784 42.9499 138.662 43.0208 138.529 43.064C138.396 43.1072 138.256 43.1218 138.118 43.1067M128.988 36.9906H135.419L132.243 27.7624L128.988 36.9906ZM154.023 43.0796C154.79 43.0796 155.134 42.6738 155.134 41.6995V26.1386C155.16 25.9653 155.148 25.7884 155.101 25.62C155.053 25.4517 154.971 25.2958 154.859 25.163C154.747 25.0302 154.609 24.9236 154.453 24.8505C154.297 24.7775 154.128 24.7397 153.957 24.7397C153.785 24.7397 153.616 24.7775 153.46 24.8505C153.304 24.9236 153.166 25.0302 153.054 25.163C152.942 25.2958 152.86 25.4517 152.812 25.62C152.765 25.7884 152.753 25.9653 152.779 26.1386V38.7497L144.152 26.0574C143.517 25.1643 143.225 24.8666 142.564 24.8666C141.902 24.8666 141.452 25.3537 141.452 26.2468V41.8348C141.427 42.0081 141.438 42.1849 141.486 42.3533C141.533 42.5217 141.616 42.6776 141.728 42.8104C141.839 42.9432 141.978 43.0497 142.134 43.1228C142.289 43.1958 142.459 43.2337 142.63 43.2337C142.801 43.2337 142.971 43.1958 143.126 43.1228C143.282 43.0497 143.421 42.9432 143.533 42.8104C143.644 42.6776 143.727 42.5217 143.774 42.3533C143.822 42.1849 143.833 42.0081 143.808 41.8348V29.2778L152.435 41.9431C153.017 42.782 153.361 43.0796 154.023 43.0796Z" fill="#1F307D"/>
</svg>
