<svg width="70" height="80" viewBox="0 0 70 80" fill="none" xmlns="http://www.w3.org/2000/svg">
<path d="M0 6.86274C0 3.07255 3.07256 0 6.86274 0H48.0392C60.1678 0 70 9.83218 70 21.9608V72.7451C70 76.5353 66.9274 79.6078 63.1373 79.6078H6.86274C3.07256 79.6078 0 76.5353 0 72.7451V6.86274Z" fill="#E6E5EB"/>
<path d="M28.3335 31.8136H40.4903M34.4119 25.7352V37.892M23.0148 15.0979H45.809C47.9072 15.0979 49.608 16.8838 49.608 19.0869V57.6469L34.4119 47.0097L19.2158 57.6469V19.0869C19.2158 16.8838 20.9167 15.0979 23.0148 15.0979Z" stroke="#1F307D" stroke-opacity="0.2" stroke-width="3.03922" stroke-linecap="round" stroke-linejoin="round"/>
<path d="M10.455 65.9261H12.6747C13.6541 65.9261 14.3904 66.0727 14.8836 66.3658C15.3769 66.6588 15.6235 67.1575 15.6235 67.8616C15.6235 68.1654 15.5645 68.4389 15.4466 68.6819C15.3322 68.9214 15.1642 69.1198 14.9426 69.2771C14.721 69.4343 14.4476 69.5433 14.1223 69.6041V69.6577C14.4654 69.7113 14.7693 69.8096 15.0338 69.9526C15.2983 70.0956 15.5056 70.2957 15.6557 70.5531C15.8058 70.8105 15.8809 71.1375 15.8809 71.5343C15.8809 72.0168 15.7683 72.4243 15.5431 72.7567C15.3215 73.0891 15.007 73.3411 14.5995 73.5127C14.192 73.6807 13.7095 73.7646 13.1519 73.7646H10.455V65.9261ZM11.3665 69.2878H12.8677C13.5504 69.2878 14.0222 69.1752 14.2831 68.95C14.5476 68.7248 14.6799 68.396 14.6799 67.9635C14.6799 67.5167 14.5226 67.195 14.2081 66.9984C13.8971 66.8018 13.4003 66.7035 12.7176 66.7035H11.3665V69.2878ZM11.3665 70.0545V72.9872H12.9964C13.6934 72.9872 14.1866 72.8514 14.4762 72.5798C14.7657 72.3045 14.9104 71.9346 14.9104 71.4699C14.9104 71.1732 14.8443 70.9195 14.7121 70.7086C14.5834 70.4977 14.3725 70.3369 14.0794 70.226C13.7899 70.1117 13.4021 70.0545 12.916 70.0545H11.3665ZM22.4863 70.8158C22.4863 71.2983 22.4237 71.7291 22.2986 72.1079C22.1735 72.4868 21.993 72.8067 21.7571 73.0677C21.5212 73.3286 21.2352 73.5287 20.8993 73.6681C20.5668 73.804 20.1898 73.8719 19.768 73.8719C19.3748 73.8719 19.0138 73.804 18.685 73.6681C18.3597 73.5287 18.0773 73.3286 17.8378 73.0677C17.6019 72.8067 17.4178 72.4868 17.2856 72.1079C17.1569 71.7291 17.0926 71.2983 17.0926 70.8158C17.0926 70.1724 17.2016 69.6256 17.4196 69.1752C17.6377 68.7212 17.9486 68.3763 18.3525 68.1404C18.76 67.9009 19.2443 67.7812 19.8055 67.7812C20.3417 67.7812 20.8099 67.9009 21.2102 68.1404C21.6141 68.3799 21.9269 68.7266 22.1485 69.1805C22.3737 69.6309 22.4863 70.176 22.4863 70.8158ZM18.0148 70.8158C18.0148 71.2876 18.0773 71.6969 18.2024 72.0436C18.3275 72.3903 18.5205 72.6584 18.7815 72.8478C19.0424 73.0373 19.3784 73.132 19.7894 73.132C20.1969 73.132 20.5311 73.0373 20.792 72.8478C21.0565 72.6584 21.2513 72.3903 21.3764 72.0436C21.5015 71.6969 21.5641 71.2876 21.5641 70.8158C21.5641 70.3476 21.5015 69.9437 21.3764 69.6041C21.2513 69.261 21.0583 68.9965 20.7974 68.8106C20.5365 68.6247 20.1987 68.5318 19.7841 68.5318C19.1729 68.5318 18.7243 68.7338 18.4383 69.1377C18.156 69.5416 18.0148 70.1009 18.0148 70.8158ZM29.0917 70.8158C29.0917 71.2983 29.0291 71.7291 28.904 72.1079C28.7789 72.4868 28.5984 72.8067 28.3625 73.0677C28.1266 73.3286 27.8406 73.5287 27.5047 73.6681C27.1722 73.804 26.7951 73.8719 26.3734 73.8719C25.9802 73.8719 25.6192 73.804 25.2903 73.6681C24.9651 73.5287 24.6827 73.3286 24.4432 73.0677C24.2073 72.8067 24.0232 72.4868 23.891 72.1079C23.7623 71.7291 23.698 71.2983 23.698 70.8158C23.698 70.1724 23.807 69.6256 24.025 69.1752C24.2431 68.7212 24.554 68.3763 24.9579 68.1404C25.3654 67.9009 25.8497 67.7812 26.4109 67.7812C26.9471 67.7812 27.4153 67.9009 27.8156 68.1404C28.2195 68.3799 28.5323 68.7266 28.7539 69.1805C28.9791 69.6309 29.0917 70.176 29.0917 70.8158ZM24.6202 70.8158C24.6202 71.2876 24.6827 71.6969 24.8078 72.0436C24.9329 72.3903 25.1259 72.6584 25.3869 72.8478C25.6478 73.0373 25.9838 73.132 26.3948 73.132C26.8023 73.132 27.1365 73.0373 27.3974 72.8478C27.6619 72.6584 27.8567 72.3903 27.9818 72.0436C28.1069 71.6969 28.1695 71.2876 28.1695 70.8158C28.1695 70.3476 28.1069 69.9437 27.9818 69.6041C27.8567 69.261 27.6637 68.9965 27.4028 68.8106C27.1419 68.6247 26.8041 68.5318 26.3895 68.5318C25.7782 68.5318 25.3297 68.7338 25.0437 69.1377C24.7613 69.5416 24.6202 70.1009 24.6202 70.8158ZM31.5151 65.4221V69.7542C31.5151 69.8972 31.5097 70.0723 31.499 70.2797C31.4883 70.4834 31.4793 70.6639 31.4722 70.8212H31.5097C31.5848 70.7282 31.6938 70.5906 31.8368 70.4083C31.9833 70.226 32.1066 70.0795 32.2067 69.9687L34.1583 67.8884H35.2038L32.8394 70.3976L35.3754 73.7646H34.3031L32.2282 70.982L31.5151 71.6361V73.7646H30.6304V65.4221H31.5151ZM42.7796 67.7812C43.4266 67.7812 43.9145 67.951 44.2433 68.2905C44.5722 68.6265 44.7366 69.168 44.7366 69.9151V73.7646H43.8573V69.958C43.8573 69.4826 43.7536 69.1269 43.5463 68.891C43.3426 68.6515 43.0388 68.5318 42.6349 68.5318C42.0665 68.5318 41.6537 68.6962 41.3963 69.0251C41.139 69.3539 41.0103 69.8382 41.0103 70.478V73.7646H40.1257V69.958C40.1257 69.6399 40.0792 69.3754 39.9863 69.1645C39.8969 68.9536 39.7611 68.7963 39.5788 68.6927C39.4001 68.5854 39.1731 68.5318 38.8979 68.5318C38.5083 68.5318 38.1955 68.6122 37.9596 68.7731C37.7237 68.9339 37.5521 69.1734 37.4449 69.4915C37.3413 69.8061 37.2894 70.1939 37.2894 70.655V73.7646H36.3994V67.8884H37.1179L37.2519 68.7195H37.3001C37.4181 68.5157 37.5664 68.3442 37.7452 68.2048C37.9239 68.0654 38.124 67.9599 38.3456 67.8884C38.5673 67.8169 38.8032 67.7812 39.0534 67.7812C39.5002 67.7812 39.8737 67.8652 40.1739 68.0332C40.4777 68.1976 40.6976 68.4496 40.8334 68.7892H40.8816C41.0747 68.4496 41.3392 68.1976 41.6751 68.0332C42.0111 67.8652 42.3793 67.7812 42.7796 67.7812ZM48.7631 67.7919C49.4636 67.7919 49.9837 67.9492 50.3233 68.2637C50.6628 68.5783 50.8326 69.0805 50.8326 69.7703V73.7646H50.1839L50.0123 72.8961H49.9694C49.805 73.1105 49.6334 73.291 49.4547 73.4376C49.276 73.5806 49.0687 73.6896 48.8328 73.7646C48.6004 73.8361 48.3145 73.8719 47.9749 73.8719C47.6175 73.8719 47.2994 73.8093 47.0206 73.6842C46.7454 73.5591 46.5273 73.3697 46.3665 73.1159C46.2092 72.8621 46.1306 72.5404 46.1306 72.1508C46.1306 71.5646 46.3629 71.1143 46.8276 70.7997C47.2922 70.4852 48 70.3136 48.9507 70.285L49.9641 70.2421V69.8829C49.9641 69.3754 49.855 69.0197 49.637 68.816C49.419 68.6122 49.1116 68.5104 48.7148 68.5104C48.4074 68.5104 48.1143 68.555 47.8355 68.6444C47.5567 68.7338 47.2922 68.8392 47.042 68.9607L46.7686 68.2852C47.0331 68.1494 47.3369 68.0332 47.68 67.9367C48.0232 67.8402 48.3842 67.7919 48.7631 67.7919ZM49.9533 70.8694L49.058 70.907C48.3252 70.9356 47.8087 71.0553 47.5085 71.2662C47.2082 71.4771 47.0581 71.7755 47.0581 72.1616C47.0581 72.4975 47.16 72.746 47.3637 72.9068C47.5675 73.0677 47.8373 73.1481 48.1733 73.1481C48.6952 73.1481 49.1223 73.0033 49.4547 72.7138C49.7871 72.4243 49.9533 71.99 49.9533 71.4109V70.8694ZM55.3363 67.7812C55.4543 67.7812 55.5776 67.7883 55.7062 67.8026C55.8349 67.8134 55.9493 67.8294 56.0494 67.8509L55.9368 68.6766C55.8403 68.6515 55.7331 68.6319 55.6151 68.6176C55.4971 68.6033 55.3863 68.5961 55.2827 68.5961C55.0468 68.5961 54.8234 68.6444 54.6125 68.7409C54.4052 68.8338 54.2229 68.9697 54.0656 69.1484C53.9083 69.3235 53.785 69.5362 53.6957 69.7864C53.6063 70.033 53.5616 70.3083 53.5616 70.6121V73.7646H52.6663V67.8884H53.4062L53.5027 68.9715H53.5402C53.6617 68.7534 53.8083 68.555 53.9798 68.3763C54.1514 68.194 54.3498 68.0493 54.575 67.942C54.8037 67.8348 55.0575 67.7812 55.3363 67.7812ZM58.0439 65.4221V69.7542C58.0439 69.8972 58.0385 70.0723 58.0278 70.2797C58.0171 70.4834 58.0081 70.6639 58.001 70.8212H58.0385C58.1136 70.7282 58.2226 70.5906 58.3656 70.4083C58.5121 70.226 58.6354 70.0795 58.7355 69.9687L60.6871 67.8884H61.7326L59.3682 70.3976L61.9042 73.7646H60.8319L58.7569 70.982L58.0439 71.6361V73.7646H57.1592V65.4221H58.0439Z" fill="#1F307D" fill-opacity="0.2"/>
</svg>
