<svg width="30" height="21" viewBox="0 0 30 21" fill="none" xmlns="http://www.w3.org/2000/svg">
<path d="M1.82202 9.23555C1.10481 9.23555 0.523391 9.81697 0.523391 10.5342C0.523391 11.2514 1.10481 11.8328 1.82202 11.8328V9.23555ZM28.7129 11.4524C29.22 10.9453 29.22 10.1231 28.7129 9.61591L20.4485 1.35148C19.9413 0.844331 19.1191 0.844331 18.6119 1.35148C18.1048 1.85862 18.1048 2.68087 18.6119 3.18802L25.9581 10.5342L18.6119 17.8803C18.1048 18.3875 18.1048 19.2097 18.6119 19.7169C19.1191 20.224 19.9413 20.224 20.4485 19.7169L28.7129 11.4524ZM1.82202 11.8328H27.7946V9.23555H1.82202V11.8328Z" fill="#1F307D"/>
</svg>
