<svg width="26" height="30" viewBox="0 0 26 30" fill="none" xmlns="http://www.w3.org/2000/svg">
<path d="M2.76473 30C1.99217 30 1.33824 29.7254 0.802944 29.1761C0.267648 28.6268 0 27.9557 0 27.163V6.15696C0 5.36419 0.267648 4.69316 0.802944 4.14386C1.33824 3.59456 1.99217 3.31991 2.76473 3.31991H4.88239V0H7.23529V3.31991H18.8235V0H21.1176V3.31991H23.2353C24.0078 3.31991 24.6618 3.59456 25.1971 4.14386C25.7324 4.69316 26 5.36419 26 6.15696V27.163C26 27.9557 25.7324 28.6268 25.1971 29.1761C24.6618 29.7254 24.0078 30 23.2353 30H2.76473ZM2.29409 27.163C2.29409 27.2837 2.3431 27.3944 2.44114 27.495C2.5392 27.5956 2.64706 27.6459 2.76473 27.6459H23.2353C23.3529 27.6459 23.4608 27.5956 23.5589 27.495C23.6569 27.3944 23.7059 27.2837 23.7059 27.163V6.15696C23.7059 6.03622 23.6569 5.92553 23.5589 5.82491C23.4608 5.72431 23.3529 5.67401 23.2353 5.67401H2.76473C2.64706 5.67401 2.5392 5.72431 2.44114 5.82491C2.3431 5.92553 2.29409 6.03622 2.29409 6.15696V27.163ZM8.88239 27.6459V24.504L6.01175 21.0422C5.76077 20.7746 5.53921 20.4225 5.34707 19.9859C5.15492 19.5493 5.05885 19.0442 5.05885 18.4708C5.05885 18.1509 5.09071 17.84 5.15444 17.5382C5.21816 17.2364 5.32159 16.9437 5.46472 16.66C5.33727 16.3923 5.23775 16.1076 5.16618 15.8058C5.09463 15.504 5.05885 15.1851 5.05885 14.8491C5.05885 14.2757 5.15492 13.7706 5.34707 13.334C5.53921 12.8974 5.76077 12.5453 6.01175 12.2777L8.88239 8.81591V5.67401H10.7059V9.08146C10.7059 9.21224 10.6167 9.46073 10.4382 9.82693L7.3794 13.5151C7.20096 13.7243 7.07351 13.9401 6.99704 14.1625C6.92057 14.3848 6.88233 14.6137 6.88233 14.8491C6.88233 15.3722 7.04802 15.8234 7.3794 16.2027C7.71077 16.582 8.13136 16.7716 8.64116 16.7716C8.87058 16.7716 9.0848 16.7324 9.28382 16.6539C9.48283 16.5754 9.66371 16.4447 9.82646 16.2616C10.2598 15.8169 10.7505 15.4769 11.2985 15.2414C11.8466 15.006 12.4137 14.8883 13 14.8883C13.5863 14.8883 14.1534 15.006 14.7015 15.2414C15.2495 15.4769 15.7402 15.8169 16.1735 16.2616C16.352 16.4447 16.5431 16.5754 16.7471 16.6539C16.951 16.7324 17.1549 16.7716 17.3588 16.7716C17.8686 16.7716 18.2892 16.582 18.6206 16.2027C18.952 15.8234 19.1177 15.3853 19.1177 14.8883C19.1177 14.6529 19.0731 14.424 18.9838 14.2017C18.8946 13.9794 18.7735 13.7636 18.6206 13.5543L15.5618 9.82693C15.4598 9.7223 15.3897 9.6046 15.3515 9.47381C15.3132 9.34303 15.2941 9.21224 15.2941 9.08146V5.67401H17.1176V8.83098L20.0118 12.3411C20.3294 12.7093 20.5637 13.1102 20.7147 13.5438C20.8657 13.9774 20.9411 14.4255 20.9411 14.8883C20.9411 15.2082 20.9014 15.5191 20.822 15.8209C20.7426 16.1227 20.6392 16.4024 20.5118 16.66C20.6549 16.9437 20.7622 17.2364 20.8338 17.5382C20.9054 17.84 20.9411 18.1509 20.9411 18.4708C20.9411 19.0442 20.8451 19.5493 20.6529 19.9859C20.4608 20.4225 20.2392 20.7746 19.9882 21.0422L17.1176 24.504V27.6459H15.2941V24.2385C15.2941 24.0815 15.3833 23.833 15.5618 23.493L18.6206 19.8048C18.8186 19.5654 18.9559 19.3053 19.0324 19.0246C19.1088 18.744 19.1226 18.4658 19.0735 18.1901C18.8128 18.341 18.5446 18.4542 18.2691 18.5296C17.9936 18.6051 17.703 18.6428 17.3971 18.6428C16.9461 18.6428 16.4976 18.5508 16.0515 18.3667C15.6054 18.1826 15.2108 17.9064 14.8677 17.5382C14.6402 17.2786 14.3633 17.084 14.0368 16.9542C13.7103 16.8244 13.3647 16.7595 13 16.7595C12.6608 16.7595 12.3255 16.8244 11.9941 16.9542C11.6627 17.084 11.3755 17.2786 11.1323 17.5382C10.799 17.9064 10.4107 18.1826 9.96762 18.3667C9.52448 18.5508 9.07742 18.6428 8.62644 18.6428C8.32056 18.6428 8.02596 18.6051 7.74263 18.5296C7.45931 18.4542 7.18725 18.341 6.92646 18.1901C6.87744 18.4658 6.89117 18.744 6.96764 19.0246C7.04411 19.3053 7.18136 19.5654 7.3794 19.8048L10.4382 23.493C10.5147 23.6238 10.5784 23.748 10.6294 23.8657C10.6804 23.9834 10.7059 24.1077 10.7059 24.2385V27.6459H8.88239ZM2.29409 27.163V27.6459V5.67401V27.163Z" fill="white"/>
</svg>
