<svg width="31" height="30" viewBox="0 0 31 30" fill="none" xmlns="http://www.w3.org/2000/svg">
<path d="M15.3948 14.3684C13.4191 14.3684 11.7279 13.6649 10.3209 12.258C8.91403 10.8511 8.21057 9.15984 8.21057 7.1842C8.21057 5.20853 8.91403 3.51726 10.3209 2.11037C11.7279 0.703458 13.4191 0 15.3948 0C17.3704 0 19.0617 0.703458 20.4686 2.11037C21.8755 3.51726 22.579 5.20853 22.579 7.1842C22.579 9.15984 21.8755 10.8511 20.4686 12.258C19.0617 13.6649 17.3704 14.3684 15.3948 14.3684ZM0 30V25.4369C0 24.4316 0.273035 23.5007 0.819107 22.6441C1.36514 21.7876 2.09474 21.129 3.00789 20.6685C5.03686 19.6737 7.08359 18.9277 9.14807 18.4303C11.2125 17.933 13.2948 17.6843 15.3948 17.6843C17.4948 17.6843 19.577 17.933 21.6415 18.4303C23.706 18.9277 25.7527 19.6737 27.7817 20.6685C28.6948 21.129 29.4244 21.7876 29.9704 22.6441C30.5165 23.5007 30.7895 24.4316 30.7895 25.4369V30H0ZM3.07891 26.9211H27.7106V25.4369C27.7106 25.0211 27.5902 24.6362 27.3494 24.2823C27.1086 23.9283 26.7817 23.6395 26.3685 23.4158C24.6001 22.5447 22.7969 21.8849 20.9589 21.4362C19.1209 20.9875 17.2662 20.7632 15.3948 20.7632C13.5234 20.7632 11.6687 20.9875 9.83067 21.4362C7.99267 21.8849 6.18945 22.5447 4.42103 23.4158C4.00787 23.6395 3.6809 23.9283 3.44013 24.2823C3.19932 24.6362 3.07891 25.0211 3.07891 25.4369V26.9211ZM15.3948 11.2895C16.5237 11.2895 17.4902 10.8875 18.2941 10.0836C19.0981 9.27961 19.5001 8.31316 19.5001 7.1842C19.5001 6.05525 19.0981 5.08879 18.2941 4.28484C17.4902 3.48089 16.5237 3.07891 15.3948 3.07891C14.2658 3.07891 13.2994 3.48089 12.4954 4.28484C11.6915 5.08879 11.2895 6.05525 11.2895 7.1842C11.2895 8.31316 11.6915 9.27961 12.4954 10.0836C13.2994 10.8875 14.2658 11.2895 15.3948 11.2895Z" fill="white"/>
</svg>
