<svg width="143" height="45" viewBox="0 0 143 45" fill="none" xmlns="http://www.w3.org/2000/svg">
<path d="M142.869 39.9909C142.903 40.0363 142.927 40.0888 142.94 40.1446C142.953 40.2005 142.954 40.2585 142.943 40.3148C142.933 40.3712 142.91 40.4245 142.878 40.4712C142.845 40.518 142.803 40.5571 142.755 40.586C142.661 40.6511 142.547 40.6774 142.435 40.6597C142.323 40.6419 142.222 40.5814 142.152 40.4903C142.152 40.4903 139.68 36.8664 137.872 36.1544C137.384 35.9418 137.145 36.1543 136.543 36.6751C135.618 37.5253 134.205 38.8006 130.476 38.5243C130.421 38.523 130.367 38.5102 130.317 38.4868C130.267 38.4634 130.222 38.4297 130.185 38.388C130.148 38.3462 130.12 38.2972 130.102 38.2439C130.084 38.1905 130.077 38.1341 130.081 38.0779C130.089 37.9576 130.143 37.8452 130.23 37.764C130.317 37.6828 130.431 37.6392 130.549 37.6422C133.904 37.8866 135.088 36.8133 135.971 36.0056C136.595 35.4423 137.176 34.9428 138.194 35.3254C140.272 36.1544 142.755 39.8314 142.869 39.9909ZM116.785 23.4759C115.888 23.2796 114.966 23.2294 114.053 23.3271C113.804 23.3404 113.554 23.3404 113.305 23.3271C113.191 23.3266 113.08 23.37 112.996 23.4487C112.911 23.5274 112.858 23.6357 112.848 23.7522C112.839 23.869 112.876 23.9845 112.95 24.074C113.023 24.1634 113.129 24.2196 113.243 24.2304C113.533 24.249 113.825 24.249 114.115 24.2304C114.125 24.236 114.135 24.239 114.146 24.239C114.157 24.239 114.168 24.236 114.178 24.2304C114.187 24.4706 114.251 24.7052 114.364 24.9156C114.478 25.1259 114.638 25.3062 114.832 25.442C115.395 25.7986 116.029 26.0202 116.688 26.0902C117.346 26.1601 118.012 26.0766 118.634 25.8458C118.898 25.7815 119.142 25.6505 119.343 25.4648C119.544 25.2792 119.697 25.0448 119.787 24.7831C119.799 24.7272 119.801 24.6695 119.791 24.6131C119.782 24.5567 119.761 24.5028 119.731 24.4545C119.702 24.4061 119.663 24.3643 119.617 24.3313C119.571 24.2983 119.52 24.2749 119.465 24.2623C119.41 24.2497 119.354 24.2483 119.299 24.2581C119.244 24.2678 119.191 24.2886 119.144 24.3192C119.097 24.3498 119.056 24.3896 119.023 24.4364C118.991 24.4831 118.968 24.5359 118.956 24.5917C118.89 24.7102 118.801 24.8131 118.693 24.8937C118.586 24.9743 118.463 25.0307 118.333 25.0594C117.849 25.2389 117.333 25.309 116.82 25.265C116.307 25.221 115.81 25.0638 115.362 24.8043C115.267 24.74 115.188 24.6553 115.128 24.5562C115.069 24.457 115.032 24.3459 115.019 24.2304C115.539 24.2563 116.056 24.3202 116.567 24.4217C116.821 24.4699 117.078 24.5018 117.336 24.5174C117.618 24.4903 117.896 24.4333 118.167 24.3473C118.802 24.1714 119.462 24.0996 120.119 24.1348C120.22 24.1867 120.337 24.1957 120.444 24.1599C120.551 24.124 120.64 24.0462 120.691 23.9435C120.721 23.8936 120.74 23.8377 120.746 23.7796C120.753 23.7215 120.747 23.6626 120.729 23.607C120.711 23.5515 120.682 23.5005 120.643 23.4577C120.604 23.4148 120.557 23.3811 120.504 23.359C119.677 23.1634 118.812 23.2113 118.011 23.4971C117.709 23.5715 117.408 23.614 117.315 23.6459C117.119 23.6259 116.925 23.594 116.733 23.5503M116.733 22.2431C116.068 21.9998 115.356 21.9197 114.655 22.0093C114.546 22.0276 114.448 22.089 114.382 22.1803C114.316 22.2716 114.287 22.3857 114.302 22.4982C114.312 22.5562 114.333 22.6116 114.364 22.6613C114.396 22.7109 114.436 22.7537 114.483 22.7873C114.53 22.8209 114.584 22.8446 114.64 22.857C114.696 22.8693 114.755 22.8702 114.811 22.8595C115.392 22.8225 115.974 22.9019 116.525 23.0933C116.58 23.1127 116.639 23.12 116.697 23.1147C116.755 23.1094 116.812 23.0916 116.863 23.0625C116.913 23.0334 116.958 22.9937 116.993 22.9459C117.028 22.8981 117.053 22.8433 117.065 22.7851C117.094 22.6724 117.079 22.5527 117.023 22.4514C116.966 22.3501 116.874 22.2754 116.764 22.2431M118.239 22.9764C118.707 22.8285 119.194 22.7568 119.683 22.7638C119.795 22.764 119.903 22.7199 119.985 22.6407C120.066 22.5616 120.114 22.4534 120.119 22.3387C120.122 22.2807 120.114 22.2226 120.094 22.1679C120.075 22.1133 120.045 22.0632 120.006 22.0206C119.967 21.978 119.92 21.9438 119.869 21.92C119.817 21.8961 119.761 21.8831 119.704 21.8818C119.106 21.8805 118.511 21.97 117.938 22.1475C117.834 22.1944 117.751 22.2792 117.705 22.3852C117.659 22.4913 117.653 22.6111 117.689 22.7214C117.707 22.7761 117.736 22.8264 117.774 22.8692C117.812 22.912 117.859 22.9465 117.91 22.9703C117.962 22.9942 118.018 23.0071 118.074 23.0081C118.131 23.0092 118.187 22.9984 118.239 22.9764ZM124.223 22.2856C124.894 20.2702 124.801 18.0706 123.963 16.1217C123.943 16.0689 123.912 16.0208 123.873 15.9802C123.834 15.9397 123.787 15.9076 123.736 15.8858C123.685 15.864 123.63 15.8529 123.574 15.8533C123.518 15.8537 123.463 15.8654 123.412 15.8879C123.308 15.9389 123.226 16.0288 123.183 16.1393C123.141 16.2498 123.141 16.3727 123.184 16.4831C123.909 18.2256 123.99 20.1782 123.412 21.9774C122.02 25.5589 120.909 27.7693 120.047 28.4495C119.008 29.3103 115.466 30.0861 112.245 28.5027C112.183 28.4495 112.09 28.407 111.975 28.3326C111.62 28.1177 111.235 27.9599 110.833 27.865C110.778 27.8509 110.721 27.8484 110.666 27.8575C110.61 27.8666 110.557 27.8872 110.509 27.918C110.461 27.9488 110.42 27.9892 110.389 28.0367C110.357 28.0843 110.335 28.1379 110.324 28.1944C110.303 28.3094 110.325 28.4281 110.384 28.5279C110.444 28.6278 110.537 28.7019 110.646 28.7364C110.968 28.8045 111.274 28.9343 111.549 29.119L111.923 29.3103C115.673 31.1595 119.527 30.0861 120.66 29.1403C121.792 28.1944 122.789 26.154 124.275 22.2856M121.262 16.0367C121.464 16.0284 121.655 15.939 121.793 15.7878C121.931 15.6366 122.005 15.4358 122 15.229C122.003 15.0593 121.956 14.8926 121.865 14.7508C122.218 14.8349 122.565 14.945 122.903 15.0803C122.951 15.1088 123.004 15.1265 123.059 15.1322C123.114 15.138 123.169 15.1315 123.221 15.1134C123.274 15.0952 123.321 15.0658 123.362 15.0271C123.402 14.9883 123.433 14.9412 123.454 14.8889C123.482 14.8386 123.5 14.7829 123.505 14.7252C123.511 14.6676 123.505 14.6093 123.487 14.5542C123.47 14.4991 123.441 14.4485 123.403 14.4054C123.365 14.3624 123.319 14.328 123.267 14.3045C122.378 13.855 121.361 13.7456 120.4 13.9962C120.112 14.111 119.849 14.2827 119.626 14.5015C119.404 14.7204 119.225 14.982 119.101 15.2715C119.059 15.3819 119.058 15.5048 119.101 15.6153C119.143 15.7259 119.225 15.8157 119.33 15.8667C119.382 15.8893 119.437 15.9013 119.494 15.9018C119.55 15.9023 119.606 15.8913 119.658 15.8696C119.71 15.8479 119.758 15.8157 119.798 15.7751C119.838 15.7345 119.869 15.6861 119.891 15.6329C120.013 15.3081 120.25 15.0424 120.556 14.8889C120.513 14.997 120.492 15.1126 120.493 15.229C120.488 15.4324 120.559 15.6301 120.693 15.7807C120.826 15.9313 121.012 16.0231 121.21 16.0367M134.6 35.708C135.022 35.378 135.305 34.8949 135.39 34.3583C135.39 34.1458 135.39 33.9757 135.39 33.8057C135.426 33.4322 135.344 33.0567 135.158 32.7337C134.971 32.4107 134.688 32.1571 134.351 32.0097C134.122 31.8609 133.998 31.7971 133.998 31.6058C134.017 31.4319 134.066 31.2629 134.143 31.1063C134.233 30.8398 134.279 30.5595 134.278 30.2774C134.286 29.9654 134.222 29.6559 134.091 29.3741C133.673 28.6362 133.042 28.0494 132.284 27.695C132.907 26.7485 133.266 25.6463 133.322 24.5067C133.332 24.3298 133.332 24.1524 133.322 23.9754C133.202 22.6392 132.571 21.4055 131.567 20.5427C131.058 20.0432 130.798 19.7882 130.798 19.2356C130.798 18.9274 130.798 18.5448 130.892 18.1728C130.892 17.5564 131.027 16.8657 131.027 16.1642C131.101 15.4772 131.001 14.7822 130.737 14.1458C130.474 13.5094 130.055 12.953 129.52 12.5297C129.823 11.9114 129.989 11.2332 130.009 10.5423C130.02 10.1502 129.942 9.76078 129.78 9.40524C129.594 9.04464 129.332 8.73132 129.012 8.48851C128.692 8.2457 128.322 8.07959 127.931 8.00242C127.765 7.54373 127.688 7.05655 127.703 6.56772C127.703 6.30203 127.703 6.02573 127.609 5.71754C127.522 5.36411 127.358 5.03531 127.13 4.75563C126.901 4.47595 126.614 4.25257 126.29 4.10215C125.898 3.91306 125.463 3.83947 125.033 3.88963C124.804 2.06172 124.202 1.76414 123.298 1.65787C122.683 1.61133 122.107 1.33522 121.678 0.882059C121.47 0.619458 121.205 0.411166 120.903 0.274409C120.601 0.137652 120.272 0.0763724 119.943 0.0956426C119.55 0.146571 119.184 0.329747 118.904 0.616374C118.501 0.242786 117.983 0.024815 117.439 0C117.14 0.0123479 116.846 0.0909107 116.579 0.230334C116.312 0.369756 116.077 0.566711 115.892 0.807659C115.821 0.893904 115.782 1.00307 115.782 1.11586C115.782 1.22865 115.821 1.33782 115.892 1.42407C115.983 1.50108 116.101 1.53858 116.219 1.52866C116.337 1.51874 116.447 1.46217 116.525 1.37091C116.622 1.22901 116.749 1.11133 116.896 1.02667C117.044 0.942018 117.208 0.892586 117.377 0.882059C117.84 0.956423 118.264 1.18861 118.582 1.54095C118.623 1.5949 118.677 1.63636 118.74 1.66072C118.802 1.68509 118.87 1.69144 118.935 1.67911C119.006 1.68062 119.076 1.66145 119.137 1.62382C119.198 1.58618 119.247 1.53164 119.278 1.46658C119.353 1.33782 119.454 1.22673 119.574 1.14064C119.694 1.05456 119.83 0.995427 119.974 0.967096C120.275 0.967096 120.597 1.11588 121.013 1.49847C121.568 2.08222 122.301 2.45673 123.09 2.5612C123.464 2.5612 123.641 2.65684 123.766 2.81625C124.047 3.33985 124.191 3.92962 124.181 4.52724C124.182 4.5965 124.202 4.66405 124.239 4.72226C124.276 4.78047 124.328 4.82705 124.389 4.85672C124.451 4.89746 124.523 4.91909 124.597 4.91909C124.67 4.91909 124.742 4.89746 124.804 4.85672C124.965 4.77105 125.143 4.72628 125.324 4.72628C125.505 4.72628 125.683 4.77105 125.843 4.85672C126.046 4.9413 126.228 5.07244 126.374 5.2401C126.52 5.40777 126.626 5.60746 126.685 5.82379C126.685 6.08947 126.747 6.32327 126.768 6.58896C126.79 7.21334 126.942 7.82566 127.214 8.38499C127.24 8.44783 127.281 8.50262 127.334 8.54371C127.387 8.58481 127.45 8.61072 127.516 8.61879C127.815 8.65722 128.102 8.76535 128.354 8.93484C128.606 9.10434 128.817 9.33069 128.97 9.59653C129.098 10.0514 129.125 10.5296 129.049 10.9965C128.974 11.4634 128.798 11.9073 128.534 12.2959C128.51 12.3531 128.498 12.4145 128.498 12.4765C128.498 12.5386 128.51 12.6 128.534 12.6572C128.547 12.7163 128.575 12.7709 128.615 12.8156C128.655 12.8603 128.706 12.8936 128.762 12.9123C130.435 13.6987 130.196 15.9942 130.009 17.8646C130.009 18.2897 129.926 18.7148 129.894 19.0549C129.905 19.4489 130.004 19.8351 130.184 20.1835C130.364 20.5319 130.621 20.833 130.933 21.0635C131.367 21.4189 131.724 21.8618 131.983 22.3645C132.242 22.8673 132.398 23.4192 132.439 23.986C132.463 25.261 132.06 26.506 131.297 27.5143C131.254 27.5711 131.224 27.6365 131.208 27.7061C131.192 27.7756 131.19 27.8479 131.203 27.9181C131.257 28.0473 131.358 28.1502 131.484 28.2051C132.238 28.4683 132.882 28.9853 133.312 29.6716C133.39 29.8374 133.431 30.019 133.431 30.203C133.431 30.387 133.39 30.5687 133.312 30.7344C132.845 31.9672 133.312 32.371 133.915 32.7005C134.517 33.0299 134.631 33.1256 134.486 34.1777C134.47 34.3334 134.421 34.4838 134.342 34.6179C134.263 34.752 134.156 34.8666 134.029 34.9534C132.824 35.878 129.759 35.6867 128.679 35.5273C128.609 35.5227 128.539 35.5347 128.474 35.5623C128.409 35.59 128.351 35.6326 128.305 35.6867C128.257 35.7358 128.223 35.7974 128.206 35.8648C128.19 35.9322 128.192 36.0029 128.212 36.0693C128.273 36.2493 128.287 36.4429 128.25 36.6298C128.214 36.8168 128.128 36.9903 128.004 37.1321C127.729 37.3535 127.409 37.5087 127.067 37.5859C126.725 37.6632 126.371 37.6607 126.03 37.5784C125.956 37.5628 125.879 37.5663 125.807 37.5885C125.734 37.6108 125.668 37.6511 125.615 37.7059C125.567 37.76 125.534 37.8252 125.518 37.8958C125.502 37.9663 125.503 38.0398 125.521 38.1098C125.687 38.8431 125.521 39.3426 125.158 39.5764C124.95 39.6917 124.718 39.7521 124.482 39.7521C124.246 39.7521 124.014 39.6917 123.807 39.5764C123.682 39.4357 123.596 39.2632 123.558 39.0769C123.531 38.9046 123.466 38.7408 123.369 38.5974C123.272 38.4539 123.145 38.3345 122.997 38.2479C122.848 38.1803 122.687 38.1453 122.524 38.1453C122.361 38.1453 122.2 38.1803 122.052 38.2479C121.397 38.5136 121.117 38.4393 121.013 38.3649C120.928 38.2876 120.861 38.1924 120.816 38.086C120.772 37.9795 120.75 37.8643 120.753 37.7485C120.747 37.6599 120.712 37.576 120.654 37.5104C120.595 37.4448 120.517 37.4013 120.431 37.3871C120.358 37.3871 119.61 37.1746 119.496 35.8887C119.55 34.7668 120.035 33.7123 120.847 32.9555L121.054 32.6898L121.117 32.5942C121.477 32.2393 121.711 31.7704 121.778 31.2632C121.846 30.7559 121.745 30.2401 121.491 29.7992C121.425 29.7025 121.326 29.6361 121.213 29.6142C121.1 29.5923 120.983 29.6168 120.888 29.6823C120.825 29.7145 120.771 29.7646 120.734 29.8267C120.698 29.8888 120.679 29.9604 120.68 30.033C120.675 30.1174 120.701 30.2008 120.753 30.2668C120.878 30.4675 120.95 30.6984 120.961 30.9363C120.905 31.3367 120.727 31.7087 120.452 31.999L120.358 32.116L120.192 32.3072C119.3 33.1951 118.745 34.3772 118.624 35.6442C118.624 35.7399 118.624 35.8143 118.624 35.9099C118.616 36.3642 118.737 36.8111 118.971 37.1974C119.204 37.5837 119.542 37.893 119.943 38.0885C119.969 38.2891 120.036 38.4818 120.14 38.6539C120.244 38.8261 120.382 38.9739 120.545 39.0875C120.833 39.2153 121.144 39.275 121.457 39.2621C121.77 39.2492 122.077 39.1641 122.353 39.0131C122.435 39.0005 122.52 39.0005 122.602 39.0131C122.65 39.1132 122.691 39.2161 122.727 39.3213C122.807 39.6395 122.964 39.9319 123.184 40.1715C123.53 40.4205 123.937 40.5654 124.359 40.5898C124.781 40.6142 125.202 40.5172 125.573 40.3097C125.849 40.1437 126.074 39.903 126.224 39.6142C126.375 39.3254 126.444 38.9997 126.425 38.673C126.435 38.6097 126.435 38.5451 126.425 38.4818C126.823 38.5175 127.224 38.4689 127.603 38.3391C127.982 38.2093 128.33 38.001 128.627 37.7272C128.946 37.3919 129.122 36.9409 129.115 36.4732C130.32 36.5901 133.167 36.7282 134.559 35.6442M112.619 13.7837C112.049 13.7174 111.472 13.8179 110.955 14.0738C110.439 14.3296 110.003 14.7302 109.7 15.229C109.653 15.3365 109.649 15.4584 109.687 15.5693C109.726 15.6801 109.805 15.7714 109.908 15.8242C109.96 15.8508 110.016 15.8665 110.074 15.8702C110.131 15.8739 110.189 15.8656 110.244 15.8457C110.298 15.8258 110.348 15.7948 110.39 15.7546C110.433 15.7143 110.466 15.6657 110.49 15.6116C110.665 15.2755 110.953 15.0151 111.3 14.8783C111.289 14.9558 111.289 15.0346 111.3 15.1121C111.295 15.3246 111.371 15.5307 111.513 15.6859C111.655 15.8411 111.851 15.9328 112.058 15.9411C112.267 15.9328 112.464 15.8414 112.608 15.6866C112.751 15.5317 112.83 15.3256 112.827 15.1121C112.821 14.9566 112.782 14.8042 112.713 14.6658C113.034 14.6748 113.345 14.7804 113.607 14.9695C113.869 15.1585 114.072 15.4225 114.188 15.7285C114.23 15.839 114.311 15.9295 114.414 15.9825C114.518 16.0355 114.637 16.0473 114.749 16.0155C114.857 15.9724 114.945 15.8898 114.997 15.7838C115.049 15.6777 115.06 15.5558 115.029 15.4416C114.992 15.3613 114.951 15.2832 114.905 15.2078C115.169 14.7864 115.283 14.2848 115.228 13.7874C115.173 13.29 114.953 12.8271 114.603 12.4765C113.565 11.2756 111.549 11.7751 110.116 12.1258C110.061 12.1406 110.009 12.1664 109.964 12.2018C109.919 12.2372 109.882 12.2814 109.854 12.3319C109.826 12.3824 109.808 12.4381 109.801 12.4958C109.794 12.5535 109.799 12.612 109.815 12.6678C109.826 12.7246 109.848 12.7786 109.88 12.8265C109.911 12.8745 109.952 12.9155 109.999 12.9472C110.047 12.9788 110.1 13.0005 110.156 13.0109C110.211 13.0214 110.268 13.0203 110.324 13.0079C111.549 12.6678 113.243 12.264 113.98 13.0929C114.154 13.2588 114.279 13.471 114.342 13.7057C114.404 13.9404 114.401 14.1882 114.333 14.4214C113.84 14.0503 113.251 13.8359 112.64 13.805M121.989 40.0759C121.934 40.0866 121.882 40.1092 121.837 40.1421C121.791 40.1751 121.752 40.2175 121.724 40.2668C121.695 40.316 121.678 40.3709 121.671 40.4277C121.665 40.4846 121.671 40.5421 121.688 40.5966C122.031 42.0844 121.989 42.7221 121.501 42.9134C120.545 43.3916 117.772 43.6467 114.427 43.6042C112.427 43.6672 110.43 43.4346 108.495 42.9134C109.72 39.3663 110.576 35.6974 111.051 31.9672L111.165 31.0213C112.043 31.3513 112.942 31.6176 113.856 31.8184C113.922 32.1469 113.953 32.4819 113.949 32.8174C113.917 33.8417 113.83 34.8634 113.689 35.878C113.474 37.5666 113.349 39.266 113.315 40.9686C113.315 41.3724 113.315 41.755 113.367 42.1376C113.366 42.1957 113.376 42.2535 113.398 42.3072C113.419 42.361 113.452 42.4095 113.493 42.4496C113.534 42.4897 113.583 42.5204 113.636 42.5399C113.69 42.5594 113.747 42.5672 113.804 42.5627C113.917 42.5571 114.025 42.5062 114.102 42.4208C114.18 42.3354 114.222 42.2223 114.219 42.1057C114.155 40.0627 114.266 38.018 114.552 35.9949C114.78 33.9332 114.967 32.3179 114.552 31.2764C114.527 31.2038 114.485 31.139 114.428 31.0886C114.372 31.0382 114.303 31.004 114.23 30.9895C113.102 30.7447 111.995 30.4143 110.916 30.0011C110.856 29.9646 110.788 29.9453 110.718 29.9453C110.649 29.9453 110.581 29.9646 110.521 30.0011C110.465 30.0373 110.418 30.0856 110.382 30.1425C110.346 30.1993 110.323 30.2635 110.313 30.3305C110.313 30.3305 110.168 31.829 110.168 31.8503C109.664 35.5781 108.798 39.245 107.581 42.7965C107.567 42.8594 107.567 42.9248 107.581 42.9878C107.58 43.0843 107.601 43.1799 107.643 43.2666C107.684 43.3534 107.745 43.429 107.82 43.4872C108.672 44.2737 113.076 44.4331 114.417 44.465C115.757 44.4969 120.234 44.465 121.885 43.6998C123.184 43.0622 122.737 41.383 122.509 40.3628C122.494 40.3066 122.469 40.2539 122.434 40.2079C122.4 40.1618 122.357 40.1233 122.307 40.0946C122.258 40.0659 122.203 40.0475 122.147 40.0407C122.091 40.0338 122.033 40.0385 121.979 40.0546M120.14 30.8725C120.097 30.7676 120.014 30.6844 119.912 30.6407C119.809 30.597 119.693 30.5963 119.59 30.6387C118.391 31.0584 117.127 31.2529 115.86 31.2126C115.747 31.2126 115.639 31.2585 115.559 31.3402C115.479 31.422 115.435 31.5328 115.435 31.6483C115.435 31.7639 115.479 31.8747 115.559 31.9565C115.639 32.0382 115.747 32.0841 115.86 32.0841C117.236 32.133 118.609 31.9241 119.912 31.4677C120.017 31.4167 120.099 31.3268 120.141 31.2163C120.183 31.1058 120.183 30.9829 120.14 30.8725ZM119.444 12.0833C119.063 12.2805 118.733 12.5689 118.483 12.9241C118.234 13.2793 118.072 13.6908 118.011 14.1238C117.994 15.4572 118.297 16.7744 118.894 17.9603C119.257 18.8423 119.631 19.7669 119.403 20.0857C119.174 20.4046 118.894 20.5427 118.177 20.394C117.535 20.2196 116.854 20.272 116.245 20.5427C116.021 20.6333 115.772 20.6333 115.549 20.5427C115.44 20.4648 115.366 20.3466 115.341 20.2133C115.393 20.1693 115.435 20.1141 115.464 20.0517C115.492 19.9892 115.507 19.921 115.507 19.8519C115.507 19.7336 115.461 19.62 115.379 19.5363C115.298 19.4526 115.187 19.4056 115.071 19.4056C115.014 19.4018 114.956 19.4124 114.904 19.4365C114.851 19.4605 114.805 19.4974 114.77 19.5437C114.684 19.6119 114.614 19.6989 114.566 19.7982C114.517 19.8975 114.491 20.0066 114.489 20.1176C114.483 20.3314 114.526 20.5436 114.614 20.7373C114.703 20.9311 114.834 21.101 114.998 21.2335C115.225 21.3883 115.487 21.4788 115.759 21.4956C116.031 21.5124 116.303 21.455 116.546 21.3292C116.998 21.1232 117.509 21.0967 117.98 21.2548C118.355 21.3988 118.768 21.4044 119.147 21.2706C119.527 21.1368 119.848 20.8718 120.057 20.5215C120.189 20.3013 120.254 20.0461 120.244 19.7882C120.16 19.0206 119.949 18.2732 119.621 17.5777C119.153 16.6213 118.867 15.5826 118.779 14.517V14.1876C118.827 13.8905 118.94 13.6083 119.109 13.3618C119.278 13.1153 119.499 12.9108 119.756 12.7635C120.982 12.179 122.872 13.0717 122.872 13.0717C122.95 13.114 123.039 13.1307 123.126 13.1192C123.214 13.1078 123.296 13.0689 123.36 13.0079C123.426 12.9502 123.472 12.8731 123.492 12.7874C123.513 12.7017 123.507 12.6117 123.475 12.5297C123.06 11.4188 122.808 10.2514 122.727 9.06516C122.721 8.9505 122.673 8.84235 122.592 8.76318C122.511 8.68402 122.403 8.63994 122.29 8.64007C122.178 8.65052 122.074 8.70292 121.997 8.78725C121.921 8.87157 121.877 8.98189 121.875 9.09704C121.933 10.0707 122.104 11.0338 122.384 11.9664C121.429 11.5836 120.368 11.5836 119.413 11.9664M109.617 9.38397C110.154 9.41597 110.689 9.30557 111.171 9.0635C111.654 8.82143 112.067 8.45592 112.37 8.00242C112.898 8.57806 113.601 8.95285 114.365 9.06516C115.115 9.01309 115.817 8.66208 116.317 8.08742C116.891 8.61845 117.623 8.93661 118.395 8.99076C118.766 8.97444 119.128 8.86988 119.453 8.68541C119.777 8.50093 120.055 8.24162 120.265 7.92802C120.519 8.15462 120.798 8.35071 121.096 8.51251C121.144 8.54258 121.197 8.56235 121.253 8.5706C121.309 8.57884 121.366 8.57539 121.42 8.56048C121.475 8.54557 121.525 8.51949 121.57 8.48384C121.614 8.44819 121.651 8.40372 121.678 8.35311C121.734 8.25305 121.749 8.13413 121.72 8.02253C121.691 7.91092 121.62 7.81577 121.522 7.75798C121.156 7.59438 120.848 7.31991 120.639 6.97156C120.599 6.90327 120.543 6.84669 120.476 6.80739C120.408 6.76809 120.332 6.74742 120.254 6.74742C120.177 6.74742 120.101 6.76809 120.033 6.80739C119.966 6.84669 119.91 6.90327 119.87 6.97156C119.434 7.75799 118.946 8.1087 118.395 8.1087C117.698 8.02131 117.05 7.69547 116.556 7.18409C116.512 7.13799 116.458 7.10192 116.399 7.07813C116.34 7.05435 116.277 7.04339 116.214 7.04596C116.149 7.05156 116.087 7.07162 116.032 7.1047C115.976 7.13777 115.928 7.18303 115.892 7.23725C115.709 7.49072 115.479 7.70476 115.215 7.86708C114.951 8.0294 114.659 8.13677 114.354 8.18307C113.673 8.02703 113.067 7.63232 112.64 7.0672C112.6 7.01358 112.548 6.9703 112.488 6.94078C112.429 6.91127 112.363 6.89633 112.297 6.89716C112.228 6.89796 112.159 6.91575 112.098 6.94902C112.037 6.9823 111.984 7.03008 111.944 7.08845C111.674 7.51354 110.905 8.51253 110.022 8.56567C109.5 6.14375 108.805 3.76399 107.945 1.44531H108.173C108.494 1.4247 108.815 1.48576 109.106 1.623C109.398 1.76025 109.652 1.96942 109.846 2.23176C109.892 2.29886 109.955 2.35202 110.028 2.38568C110.101 2.41934 110.182 2.43224 110.261 2.42304C110.339 2.40108 110.41 2.36211 110.471 2.30888C110.532 2.25565 110.581 2.18942 110.615 2.11484C110.75 1.63661 111.84 1.0521 112.973 1.11586C113.446 1.16574 113.9 1.33698 114.293 1.61373C114.685 1.89048 115.002 2.26382 115.216 2.69933C115.27 2.80279 115.36 2.88079 115.469 2.91656C115.578 2.95233 115.696 2.94304 115.798 2.89065C115.899 2.83056 115.973 2.73237 116.004 2.61715C116.035 2.50192 116.021 2.37881 115.964 2.27424C115.678 1.70473 115.256 1.21879 114.736 0.861918C114.217 0.505047 113.617 0.288942 112.993 0.233804C111.945 0.193576 110.923 0.57509 110.147 1.29654C109.862 1.04747 109.532 0.859002 109.175 0.742211C108.819 0.62542 108.443 0.58264 108.069 0.616374C107.802 0.646954 107.538 0.700269 107.28 0.775778C107.232 0.785865 107.187 0.803832 107.145 0.828935C107.088 0.867244 107.041 0.919272 107.009 0.980425C106.976 1.04158 106.959 1.10997 106.958 1.17962C106.946 1.24279 106.946 1.30774 106.958 1.37091C106.958 1.37091 106.958 1.37091 107.01 1.37091C107.974 3.86083 108.738 6.42698 109.295 9.04388C109.319 9.12766 109.364 9.20339 109.427 9.26319C109.489 9.32299 109.565 9.36469 109.648 9.38397M118.873 42.1163C118.895 42.1673 118.927 42.2133 118.967 42.2516C119.007 42.2899 119.054 42.3197 119.105 42.3395C119.156 42.3592 119.211 42.3685 119.265 42.3666C119.32 42.3648 119.374 42.352 119.423 42.3289C119.527 42.2821 119.608 42.1962 119.651 42.0891C119.694 41.9821 119.694 41.8623 119.652 41.755C119.462 41.024 119.374 40.2689 119.392 39.5126V39.3C119.391 39.2428 119.379 39.1864 119.356 39.1341C119.333 39.0818 119.301 39.0345 119.26 38.995C119.22 38.9555 119.172 38.9246 119.12 38.904C119.068 38.8834 119.012 38.8735 118.956 38.875C118.842 38.8777 118.734 38.926 118.654 39.0094C118.575 39.0928 118.53 39.2048 118.53 39.3213V39.5126C118.479 40.4431 118.592 41.3753 118.862 42.2651" fill="#F0E5E9"/>
<path d="M57.8444 12.2319C57.6718 12.2304 57.5043 12.1715 57.3674 12.064C57.2304 11.9565 57.1315 11.8063 57.0854 11.6362L56.3442 9.57862H51.0492L50.3079 11.6362C50.2711 11.808 50.1769 11.9614 50.0417 12.0701C49.9065 12.1788 49.7385 12.2359 49.5665 12.2319C49.4718 12.2419 49.3762 12.2317 49.2856 12.202C49.1949 12.1722 49.1113 12.1236 49.0399 12.0591C48.9686 11.9947 48.9112 11.9158 48.8712 11.8275C48.8312 11.7391 48.8095 11.6433 48.8076 11.546C48.8334 11.3292 48.8869 11.1169 48.9665 10.9143V10.7879L52.4965 1.00519C52.7436 0.409567 53.0966 0.0846613 53.6084 0.0846613C53.861 0.0922552 54.1034 0.187579 54.2958 0.354894C54.4883 0.52221 54.6194 0.75156 54.6674 1.00519L58.1974 10.9143C58.2853 11.114 58.3391 11.3277 58.3563 11.546C58.3568 11.6425 58.3375 11.738 58.2994 11.8262C58.2614 11.9145 58.2055 11.9937 58.1356 12.0584C58.0656 12.1232 57.9831 12.172 57.8934 12.2019C57.8037 12.2318 57.7087 12.242 57.6149 12.2319M51.3492 8.17078H55.6381L53.5202 2.01595L51.3492 8.17078ZM68.0462 12.2319C68.558 12.2319 68.7874 11.9611 68.7874 11.3113V0.932981C68.8044 0.817411 68.7968 0.699468 68.7651 0.587176C68.7335 0.474884 68.6785 0.37092 68.604 0.282351C68.5294 0.193783 68.437 0.122695 68.3331 0.0739753C68.2293 0.0252559 68.1163 0 68.002 0C67.8877 0 67.7748 0.0252559 67.6709 0.0739753C67.5671 0.122695 67.4747 0.193783 67.4001 0.282351C67.3256 0.37092 67.2705 0.474884 67.2388 0.587176C67.2072 0.699468 67.1996 0.817411 67.2165 0.932981V9.34397L61.4627 0.878836C61.0391 0.283208 60.8449 0.0846613 60.4037 0.0846613C59.9624 0.0846613 59.6624 0.409567 59.6624 1.00519V11.4016C59.6454 11.5171 59.653 11.6351 59.6847 11.7474C59.7164 11.8597 59.7713 11.9637 59.8458 12.0523C59.9204 12.1408 60.0128 12.2119 60.1167 12.2606C60.2206 12.3093 60.3335 12.3345 60.4478 12.3345C60.5621 12.3345 60.675 12.3093 60.7789 12.2606C60.8828 12.2119 60.9751 12.1408 61.0497 12.0523C61.1243 11.9637 61.1793 11.8597 61.211 11.7474C61.2426 11.6351 61.2503 11.5171 61.2333 11.4016V3.02671L66.9872 11.4377C67.3755 12.0333 67.6049 12.2319 68.0462 12.2319ZM73.6412 12.2319C73.7477 12.2376 73.8541 12.2197 73.9533 12.1795C74.0524 12.1393 74.142 12.0776 74.2157 11.9988C74.2894 11.92 74.3456 11.8258 74.3805 11.7227C74.4154 11.6197 74.4281 11.5101 74.4178 11.4016V1.72716H76.5005C76.6086 1.74417 76.7191 1.73707 76.8243 1.70633C76.9295 1.6756 77.0271 1.62199 77.1101 1.54913C77.1932 1.47627 77.2598 1.38586 77.3055 1.28419C77.3512 1.18251 77.3749 1.07198 77.3749 0.960082C77.3749 0.848182 77.3512 0.737596 77.3055 0.635923C77.2598 0.534251 77.1932 0.443895 77.1101 0.371033C77.0271 0.298172 76.9295 0.244506 76.8243 0.213774C76.7191 0.183042 76.6086 0.175938 76.5005 0.192953H70.9937C70.8855 0.175938 70.7751 0.183042 70.6699 0.213774C70.5646 0.244506 70.4672 0.298172 70.3842 0.371033C70.3011 0.443895 70.2344 0.534251 70.1887 0.635923C70.143 0.737596 70.1194 0.848182 70.1194 0.960082C70.1194 1.07198 70.143 1.18251 70.1887 1.28419C70.2344 1.38586 70.3011 1.47627 70.3842 1.54913C70.4672 1.62199 70.5646 1.6756 70.6699 1.70633C70.7751 1.73707 70.8855 1.74417 70.9937 1.72716H73.1117V11.4377C73.1011 11.5479 73.1142 11.6591 73.1501 11.7635C73.186 11.8679 73.2438 11.9631 73.3195 12.0422C73.3952 12.1214 73.487 12.1826 73.5883 12.2216C73.6896 12.2606 73.798 12.2764 73.906 12.268M82.731 12.268C79.3598 12.268 77.6301 9.21764 77.6301 6.20341C77.6301 3.18917 79.3951 0.12074 82.731 0.12074C86.0669 0.12074 87.9024 3.17112 87.9024 6.20341C87.9701 6.95251 87.8883 7.70782 87.6621 8.42366C87.4359 9.1395 87.0699 9.80096 86.5864 10.3679C86.103 10.9349 85.5119 11.3957 84.8492 11.7223C84.1865 12.0488 83.4659 12.2345 82.731 12.268ZM82.731 1.52864C80.1717 1.52864 79.201 3.94724 79.201 6.20341C79.201 8.45957 80.1011 10.8601 82.731 10.8601C85.3609 10.8601 86.261 8.44152 86.261 6.20341C86.261 3.96529 85.3432 1.52864 82.731 1.52864ZM98.0866 12.268C98.5631 12.268 98.7925 11.9972 98.7925 11.3474V0.96906C98.8055 0.859091 98.7949 0.747557 98.7612 0.642258C98.7276 0.536959 98.6719 0.440501 98.5978 0.359631C98.5238 0.278762 98.4332 0.215435 98.3327 0.17417C98.2322 0.132905 98.124 0.114657 98.0159 0.12074C97.9071 0.115061 97.7984 0.133424 97.6971 0.174555C97.5958 0.215687 97.5043 0.278649 97.429 0.359136C97.3536 0.439622 97.2962 0.535741 97.2604 0.640991C97.2246 0.746241 97.2113 0.858128 97.2216 0.96906V9.38005L91.4854 0.914915C91.0794 0.319287 90.8853 0.12074 90.4087 0.12074C89.9322 0.12074 89.7028 0.445645 89.7028 1.04127V11.4377C89.6922 11.5479 89.7052 11.6591 89.7411 11.7635C89.777 11.8679 89.8349 11.9631 89.9106 12.0422C89.9863 12.1214 90.0779 12.1826 90.1793 12.2216C90.2806 12.2606 90.389 12.2764 90.4969 12.268C90.6035 12.2737 90.71 12.2558 90.8091 12.2156C90.9083 12.1754 90.9977 12.1137 91.0715 12.0349C91.1452 11.9561 91.2014 11.862 91.2363 11.7589C91.2712 11.6558 91.2839 11.5463 91.2736 11.4377V3.06279L97.0275 11.4738C97.4158 12.0694 97.6277 12.268 98.0866 12.268ZM101.917 12.268C102.024 12.2769 102.132 12.2612 102.232 12.2221C102.333 12.183 102.424 12.1214 102.498 12.0419C102.573 11.9624 102.629 11.8668 102.662 11.7623C102.696 11.6578 102.707 11.5469 102.693 11.4377V0.96906C102.71 0.855975 102.703 0.740526 102.672 0.63058C102.641 0.520635 102.587 0.418839 102.514 0.33209C102.441 0.245341 102.351 0.175684 102.249 0.127956C102.148 0.080228 102.037 0.0555228 101.925 0.0555228C101.814 0.0555228 101.703 0.080228 101.601 0.127956C101.5 0.175684 101.409 0.245341 101.336 0.33209C101.264 0.418839 101.21 0.520635 101.179 0.63058C101.148 0.740526 101.141 0.855975 101.158 0.96906V11.4377C101.145 11.5453 101.155 11.6545 101.187 11.7576C101.22 11.8607 101.275 11.9553 101.347 12.0345C101.419 12.1137 101.508 12.1757 101.606 12.216C101.705 12.2564 101.811 12.2741 101.917 12.268ZM4.57658 44.3236C4.75576 44.2954 4.91918 44.2025 5.03722 44.0618C5.15526 43.9211 5.22014 43.7418 5.22014 43.5564C5.22014 43.371 5.15526 43.1918 5.03722 43.0511C4.91918 42.9104 4.75576 42.8175 4.57658 42.7894H1.59372V33.0969C1.59372 32.9902 1.5732 32.8846 1.53329 32.7861C1.49337 32.6875 1.43489 32.598 1.36114 32.5225C1.28738 32.4471 1.19982 32.3873 1.10345 32.3465C1.00709 32.3057 0.903857 32.2846 0.799555 32.2846C0.695252 32.2846 0.591911 32.3057 0.495548 32.3465C0.399185 32.3873 0.311618 32.4471 0.237865 32.5225C0.164111 32.598 0.105631 32.6875 0.0657164 32.7861C0.0258015 32.8846 0.0052813 32.9902 0.00528135 33.0969V43.4391C-0.00805604 43.5554 0.00394616 43.6734 0.0404004 43.7844C0.0768547 43.8955 0.136822 43.9968 0.216104 44.0814C0.295385 44.1659 0.391925 44.2315 0.498888 44.2733C0.60585 44.3152 0.720572 44.3323 0.834781 44.3236H4.57658ZM11.4248 44.3236C11.533 44.3406 11.6434 44.3335 11.7486 44.3027C11.8538 44.272 11.9514 44.2183 12.0344 44.1455C12.1175 44.0726 12.1841 43.9823 12.2298 43.8806C12.2756 43.7789 12.2992 43.6683 12.2992 43.5564C12.2992 43.4445 12.2756 43.334 12.2298 43.2323C12.1841 43.1307 12.1175 43.0402 12.0344 42.9674C11.9514 42.8945 11.8538 42.8409 11.7486 42.8102C11.6434 42.7794 11.533 42.7723 11.4248 42.7894H8.08892V39.0893H11.1601C11.3393 39.0611 11.5026 38.9682 11.6207 38.8275C11.7387 38.6868 11.8036 38.5075 11.8036 38.3221C11.8036 38.1368 11.7387 37.9575 11.6207 37.8168C11.5026 37.6761 11.3393 37.5833 11.1601 37.5551H8.08892V33.8549H11.4248C11.533 33.8719 11.6434 33.8648 11.7486 33.8341C11.8538 33.8034 11.9514 33.7498 12.0344 33.6769C12.1175 33.604 12.1841 33.5137 12.2298 33.412C12.2756 33.3103 12.2992 33.1997 12.2992 33.0878C12.2992 32.9759 12.2756 32.8654 12.2298 32.7637C12.1841 32.662 12.1175 32.5717 12.0344 32.4988C11.9514 32.4259 11.8538 32.3723 11.7486 32.3416C11.6434 32.3109 11.533 32.3038 11.4248 32.3208H7.32998C7.21654 32.3151 7.10328 32.3344 6.99775 32.3774C6.89222 32.4204 6.79693 32.486 6.71831 32.5698C6.63968 32.6536 6.57953 32.7537 6.54196 32.8633C6.50438 32.9729 6.49025 33.0895 6.50048 33.2052V43.4391C6.48714 43.5554 6.49915 43.6734 6.5356 43.7844C6.57206 43.8955 6.63202 43.9968 6.7113 44.0814C6.79059 44.1659 6.88723 44.2315 6.9942 44.2733C7.10116 44.3152 7.21577 44.3323 7.32998 44.3236H11.4248ZM18.8202 44.3236C18.9283 44.3406 19.0388 44.3335 19.144 44.3027C19.2492 44.272 19.3468 44.2183 19.4298 44.1455C19.5129 44.0726 19.5795 43.9823 19.6252 43.8806C19.6709 43.7789 19.6946 43.6683 19.6946 43.5564C19.6946 43.4445 19.6709 43.334 19.6252 43.2323C19.5795 43.1307 19.5129 43.0402 19.4298 42.9674C19.3468 42.8945 19.2492 42.8409 19.144 42.8102C19.0388 42.7794 18.9283 42.7723 18.8202 42.7894H15.4491V39.0893H18.5202C18.6993 39.0611 18.8628 38.9682 18.9808 38.8275C19.0988 38.6868 19.1637 38.5075 19.1637 38.3221C19.1637 38.1368 19.0988 37.9575 18.9808 37.8168C18.8628 37.6761 18.6993 37.5833 18.5202 37.5551H15.4491V33.8549H18.8202C18.9283 33.8719 19.0388 33.8648 19.144 33.8341C19.2492 33.8034 19.3468 33.7498 19.4298 33.6769C19.5129 33.604 19.5795 33.5137 19.6252 33.412C19.6709 33.3103 19.6946 33.1997 19.6946 33.0878C19.6946 32.9759 19.6709 32.8654 19.6252 32.7637C19.5795 32.662 19.5129 32.5717 19.4298 32.4988C19.3468 32.4259 19.2492 32.3723 19.144 32.3416C19.0388 32.3109 18.9283 32.3038 18.8202 32.3208H14.6901C14.5767 32.3151 14.4633 32.3344 14.3578 32.3774C14.2523 32.4204 14.157 32.486 14.0783 32.5698C13.9997 32.6536 13.9396 32.7537 13.902 32.8633C13.8644 32.9729 13.8503 33.0895 13.8605 33.2052V43.4391C13.8472 43.5554 13.8592 43.6734 13.8956 43.7844C13.9321 43.8955 13.9921 43.9968 14.0713 44.0814C14.1506 44.1659 14.2473 44.2315 14.3542 44.2733C14.4612 44.3152 14.5759 44.3323 14.6901 44.3236H18.8202ZM25.6861 44.3236C26.3147 44.3934 26.9506 44.3153 27.5452 44.0953C28.1398 43.8753 28.6773 43.5192 29.1167 43.0542C29.5561 42.5892 29.8858 42.0276 30.0805 41.4123C30.2751 40.7971 30.3296 40.1445 30.2398 39.5044V33.0247C30.2568 32.9091 30.2492 32.7912 30.2175 32.6789C30.1858 32.5666 30.1308 32.4626 30.0562 32.374C29.9817 32.2855 29.8893 32.2144 29.7854 32.1657C29.6815 32.1169 29.5686 32.0917 29.4544 32.0917C29.3401 32.0917 29.2271 32.1169 29.1232 32.1657C29.0193 32.2144 28.9269 32.2855 28.8524 32.374C28.7778 32.4626 28.7229 32.5666 28.6912 32.6789C28.6596 32.7912 28.6519 32.9091 28.6689 33.0247V40.0639C28.611 40.8347 28.2706 41.5547 27.716 42.08C27.1613 42.6053 26.4332 42.8972 25.6772 42.8972C24.9213 42.8972 24.1932 42.6053 23.6385 42.08C23.0838 41.5547 22.7435 40.8347 22.6855 40.0639V33.0247C22.7011 32.9173 22.6935 32.8077 22.663 32.7037C22.6326 32.5996 22.5801 32.5038 22.5094 32.4228C22.4387 32.3419 22.3513 32.2778 22.2537 32.2352C22.156 32.1926 22.0504 32.1725 21.9443 32.1763C21.8347 32.1675 21.7246 32.1836 21.6218 32.2237C21.5191 32.2637 21.4263 32.3266 21.3503 32.4078C21.2742 32.489 21.2168 32.5865 21.1822 32.6932C21.1476 32.7999 21.1366 32.9131 21.15 33.0247V39.6307C21.0607 40.2691 21.115 40.92 21.3087 41.5338C21.5023 42.1475 21.8303 42.708 22.2677 43.1727C22.705 43.6373 23.2402 43.9938 23.8325 44.2152C24.4249 44.4365 25.0588 44.5168 25.6861 44.4499M41.5711 44.4499C41.7079 44.4597 41.8453 44.4418 41.9753 44.3972C42.1053 44.3525 42.2254 44.2821 42.3287 44.1898C42.4321 44.0976 42.5166 43.9854 42.5774 43.8597C42.6382 43.7339 42.6741 43.5971 42.6831 43.4572L44.4481 33.7828C44.4623 33.5303 44.4623 33.2772 44.4481 33.0247C44.4538 32.9252 44.4381 32.8257 44.4024 32.733C44.3666 32.6403 44.3116 32.5567 44.241 32.4879C44.1705 32.4192 44.0862 32.3671 43.9939 32.3351C43.9016 32.3031 43.8037 32.292 43.7068 32.3027C43.6057 32.2928 43.5036 32.3038 43.4067 32.335C43.3098 32.3662 43.22 32.4169 43.1426 32.4843C43.0653 32.5516 43.002 32.6341 42.9564 32.727C42.9108 32.8198 42.8838 32.921 42.8772 33.0247L41.4299 42.3201L38.7824 32.9525C38.7602 32.7625 38.6669 32.5887 38.5221 32.4676C38.3773 32.3464 38.1922 32.2874 38.0058 32.3027C37.8173 32.287 37.6302 32.3455 37.4825 32.4663C37.3349 32.5871 37.2379 32.761 37.2115 32.9525L34.617 42.284L33.1168 33.0247C33.1126 32.9201 33.0873 32.8176 33.0425 32.7235C32.9978 32.6294 32.9344 32.5459 32.8565 32.478C32.7786 32.4102 32.6877 32.3596 32.5898 32.3294C32.4918 32.2993 32.3887 32.2902 32.2872 32.3027C32.1924 32.2945 32.097 32.3075 32.0077 32.3409C31.9184 32.3743 31.8373 32.4271 31.7701 32.4959C31.7028 32.5646 31.6511 32.6476 31.6185 32.739C31.5859 32.8303 31.5731 32.9278 31.5811 33.0247C31.5708 33.2806 31.6007 33.5365 31.6695 33.7828L33.4345 43.4572C33.4526 43.7365 33.5776 43.9973 33.7824 44.1831C33.9872 44.3689 34.2554 44.4648 34.5288 44.4499C35.1289 44.4499 35.4818 44.3055 35.7113 43.4572L38.0411 34.9199L40.3532 43.4572C40.6003 44.3055 40.9886 44.4499 41.5358 44.4499M51.1022 44.4499C51.2813 44.4217 51.4447 44.3289 51.5627 44.1882C51.6807 44.0475 51.7456 43.8682 51.7456 43.6828C51.7456 43.4974 51.6807 43.3182 51.5627 43.1775C51.4447 43.0368 51.2813 42.9439 51.1022 42.9157H47.7133V39.0893H50.7844C50.8925 39.1063 51.0031 39.0992 51.1083 39.0685C51.2135 39.0377 51.3109 38.9841 51.394 38.9112C51.477 38.8383 51.5437 38.748 51.5894 38.6463C51.6351 38.5446 51.6588 38.434 51.6588 38.3221C51.6588 38.2102 51.6351 38.0997 51.5894 37.998C51.5437 37.8963 51.477 37.806 51.394 37.7331C51.3109 37.6602 51.2135 37.6066 51.1083 37.5759C51.0031 37.5452 50.8925 37.5381 50.7844 37.5551H47.7133V33.8549H51.1022C51.2813 33.8267 51.4447 33.7339 51.5627 33.5932C51.6807 33.4525 51.7456 33.2732 51.7456 33.0878C51.7456 32.9025 51.6807 32.7232 51.5627 32.5825C51.4447 32.4418 51.2813 32.349 51.1022 32.3208H47.0073C46.8918 32.3128 46.7758 32.3302 46.6674 32.3718C46.5589 32.4134 46.4604 32.4783 46.3784 32.562C46.2965 32.6458 46.2331 32.7466 46.1924 32.8575C46.1517 32.9684 46.1346 33.087 46.1424 33.2052V43.4391C46.1315 43.558 46.1464 43.6779 46.186 43.7903C46.2256 43.9027 46.2891 44.0047 46.3716 44.0892C46.4542 44.1736 46.554 44.2384 46.6639 44.2789C46.7738 44.3195 46.8911 44.3347 47.0073 44.3236L51.1022 44.4499ZM61.9215 44.4499C62.4334 44.4499 62.6806 44.1792 62.6806 43.5294V33.151C62.6909 33.0401 62.6776 32.9282 62.6418 32.823C62.606 32.7177 62.5486 32.6215 62.4732 32.541C62.3979 32.4606 62.3063 32.3977 62.2051 32.3565C62.1038 32.3154 61.9951 32.297 61.8863 32.3027C61.7781 32.2966 61.67 32.3149 61.5695 32.3561C61.469 32.3974 61.3784 32.4607 61.3044 32.5415C61.2303 32.6224 61.1746 32.7189 61.1409 32.8242C61.1073 32.9295 61.0966 33.0411 61.1097 33.151V41.4357L55.4617 33.0427C55.0204 32.4471 54.8263 32.2486 54.4027 32.2486C53.9791 32.2486 53.6437 32.5735 53.6437 33.1691V43.5655C53.6437 43.6721 53.6643 43.7778 53.7042 43.8763C53.7441 43.9748 53.8026 44.0644 53.8764 44.1398C53.9501 44.2152 54.0377 44.275 54.134 44.3158C54.2304 44.3567 54.3336 44.3777 54.4379 44.3777C54.5422 44.3777 54.6456 44.3567 54.7419 44.3158C54.8383 44.275 54.9259 44.2152 54.9996 44.1398C55.0734 44.0644 55.1319 43.9748 55.1718 43.8763C55.2117 43.7778 55.2322 43.6721 55.2322 43.5655V35.1906L60.9685 43.6016C61.3744 44.1972 61.6038 44.3958 62.0274 44.3958M73.4117 44.3958C73.8883 44.3958 74.206 44.0889 74.206 43.4752V33.2052C74.206 32.6095 73.8883 32.2486 73.4117 32.2486C72.9352 32.2486 72.6175 32.6095 72.6175 33.2052V37.6092H66.6871V33.2052C66.6871 32.6095 66.3693 32.2486 65.8928 32.2486C65.4162 32.2486 65.0986 32.6095 65.0986 33.2052V43.4752C65.0986 44.0889 65.3809 44.3958 65.8928 44.3958C66.4046 44.3958 66.6871 44.0889 66.6871 43.4752V39.0171H72.6175V43.4752C72.6175 44.0889 72.8999 44.3958 73.4117 44.3958ZM81.0542 44.3958C77.6654 44.3958 75.9004 41.3454 75.9004 38.3312C75.9004 35.3169 77.6654 32.2486 81.0542 32.2486C84.443 32.2486 86.1728 35.2989 86.1728 38.3312C86.1728 41.3635 84.4077 44.3958 81.0542 44.3958ZM81.0542 33.6564C78.495 33.6564 77.5242 36.075 77.5242 38.3312C77.5242 40.5873 78.4244 42.9879 81.0542 42.9879C83.6841 42.9879 84.5842 40.5873 84.5842 38.3312C84.5842 36.075 83.6841 33.6564 81.0542 33.6564ZM92.9327 44.3236C93.0408 44.3406 93.1513 44.3335 93.2565 44.3027C93.3617 44.272 93.4592 44.2183 93.5423 44.1455C93.6253 44.0726 93.692 43.9823 93.7377 43.8806C93.7834 43.7789 93.8071 43.6683 93.8071 43.5564C93.8071 43.4445 93.7834 43.334 93.7377 43.2323C93.692 43.1307 93.6253 43.0402 93.5423 42.9674C93.4592 42.8945 93.3617 42.8409 93.2565 42.8102C93.1513 42.7794 93.0408 42.7723 92.9327 42.7894H89.5616V39.0893H92.6326C92.7408 39.1063 92.8513 39.0992 92.9565 39.0685C93.0617 39.0377 93.1592 38.9841 93.2423 38.9112C93.3253 38.8383 93.392 38.748 93.4377 38.6463C93.4834 38.5446 93.507 38.434 93.507 38.3221C93.507 38.2102 93.4834 38.0997 93.4377 37.998C93.392 37.8963 93.3253 37.806 93.2423 37.7331C93.1592 37.6602 93.0617 37.6066 92.9565 37.5759C92.8513 37.5452 92.7408 37.5381 92.6326 37.5551H89.5616V33.8549H92.9327C93.0408 33.8719 93.1513 33.8648 93.2565 33.8341C93.3617 33.8034 93.4592 33.7498 93.5423 33.6769C93.6253 33.604 93.692 33.5137 93.7377 33.412C93.7834 33.3103 93.8071 33.1997 93.8071 33.0878C93.8071 32.9759 93.7834 32.8654 93.7377 32.7637C93.692 32.662 93.6253 32.5717 93.5423 32.4988C93.4592 32.4259 93.3617 32.3723 93.2565 32.3416C93.1513 32.3109 93.0408 32.3038 92.9327 32.3208H88.8378C88.7251 32.3148 88.6124 32.334 88.5077 32.3771C88.4029 32.4202 88.3085 32.4861 88.2312 32.5703C88.1539 32.6545 88.0955 32.7549 88.0601 32.8645C88.0246 32.9742 88.013 33.0905 88.026 33.2052V43.4391C88.0097 43.5544 88.019 43.6721 88.0533 43.7832C88.0875 43.8943 88.1458 43.9962 88.2238 44.0811C88.3018 44.1661 88.3975 44.232 88.5038 44.2739C88.6101 44.3159 88.7243 44.3329 88.8378 44.3236H92.9327ZM102.976 44.3236C103.074 44.3309 103.174 44.3179 103.267 44.2853C103.361 44.2528 103.448 44.2014 103.522 44.1341C103.596 44.0668 103.656 43.9849 103.699 43.8935C103.741 43.802 103.765 43.7028 103.77 43.6016C103.766 43.4788 103.735 43.3585 103.68 43.2492C103.625 43.14 103.547 43.0446 103.452 42.9699L98.3336 37.898L103.011 33.5842C103.115 33.4974 103.198 33.3869 103.253 33.2616C103.308 33.1363 103.334 32.9995 103.329 32.8622C103.329 32.769 103.31 32.6768 103.274 32.5911C103.238 32.5055 103.186 32.4282 103.12 32.364C103.054 32.2998 102.976 32.2501 102.89 32.2178C102.805 32.1856 102.714 32.1714 102.623 32.1763C102.305 32.1763 102.075 32.411 101.793 32.6637L96.9569 37.158V33.0247C96.9739 32.9091 96.9663 32.7912 96.9346 32.6789C96.903 32.5666 96.8479 32.4626 96.7734 32.374C96.6988 32.2855 96.6064 32.2144 96.5025 32.1657C96.3987 32.1169 96.2858 32.0917 96.1715 32.0917C96.0572 32.0917 95.9442 32.1169 95.8403 32.1657C95.7365 32.2144 95.6442 32.2855 95.5696 32.374C95.495 32.4626 95.44 32.5666 95.4083 32.6789C95.3767 32.7912 95.3691 32.9091 95.386 33.0247V43.4933C95.3691 43.6089 95.3767 43.7268 95.4083 43.8391C95.44 43.9514 95.495 44.0554 95.5696 44.1439C95.6442 44.2325 95.7365 44.3036 95.8403 44.3523C95.9442 44.401 96.0572 44.4262 96.1715 44.4262C96.2858 44.4262 96.3987 44.401 96.5025 44.3523C96.6064 44.3036 96.6988 44.2325 96.7734 44.1439C96.8479 44.0554 96.903 43.9514 96.9346 43.8391C96.9663 43.7268 96.9739 43.6089 96.9569 43.4933V38.6922L102.252 44.107C102.349 44.2064 102.465 44.2847 102.592 44.3374C102.719 44.3902 102.856 44.4161 102.993 44.4138M78.5126 28.5123C79.0598 28.5123 79.2539 28.1153 79.4128 27.6821L82.9428 17.6105C83.0087 17.4315 83.0445 17.2423 83.0487 17.051C83.0488 16.9578 83.0304 16.8656 82.9945 16.78C82.9586 16.6943 82.906 16.617 82.8399 16.5528C82.7738 16.4886 82.6957 16.4389 82.6102 16.4066C82.5247 16.3743 82.4336 16.3602 82.3426 16.3651C81.7602 16.3651 81.6014 16.7984 81.4072 17.3759L78.5303 25.8591L75.618 17.2857C75.4591 16.7983 75.3004 16.3651 74.7002 16.3651C74.6093 16.3602 74.5182 16.3743 74.4327 16.4066C74.3472 16.4389 74.2691 16.4886 74.203 16.5528C74.1369 16.617 74.0843 16.6943 74.0484 16.78C74.0125 16.8656 73.9941 16.9578 73.9942 17.051C74.006 17.2431 74.0477 17.432 74.1178 17.6105L77.6478 27.6821C77.789 28.1153 78.0008 28.5123 78.548 28.5123M91.6973 28.5123C91.5246 28.5109 91.3572 28.452 91.2202 28.3445C91.0833 28.237 90.9842 28.0869 90.9382 27.9167L90.1969 25.8591H84.9019L84.1606 27.9167C84.1238 28.0885 84.0297 28.2419 83.8945 28.3506C83.7592 28.4592 83.5913 28.5164 83.4194 28.5123C83.3261 28.5223 83.2319 28.5126 83.1424 28.484C83.0529 28.4553 82.9701 28.4083 82.8991 28.3458C82.828 28.2832 82.7701 28.2066 82.7291 28.1204C82.688 28.0342 82.6646 27.9403 82.6603 27.8445C82.6838 27.6215 82.7373 27.4028 82.8192 27.1947V27.1045L86.3492 17.2857C86.5963 16.69 86.9493 16.3651 87.4612 16.3651C87.7137 16.3727 87.9561 16.468 88.1486 16.6354C88.3411 16.8027 88.4721 17.032 88.5202 17.2857L92.1385 27.1947C92.2284 27.4001 92.2821 27.6201 92.2973 27.8445C92.2954 27.9395 92.2741 28.033 92.235 28.1191C92.1959 28.2053 92.1398 28.2822 92.0701 28.3449C92.0004 28.4077 91.9187 28.455 91.8302 28.4839C91.7417 28.5127 91.6484 28.5224 91.556 28.5123M85.4667 24.4332H89.7557L87.6376 18.2784L85.4667 24.4332ZM102.164 28.4943C102.676 28.4943 102.905 28.2236 102.905 27.5738V17.1954C102.922 17.0799 102.914 16.9619 102.883 16.8496C102.851 16.7373 102.796 16.6333 102.721 16.5448C102.647 16.4562 102.555 16.3851 102.451 16.3364C102.347 16.2877 102.234 16.2625 102.12 16.2625C102.005 16.2625 101.892 16.2877 101.788 16.3364C101.685 16.3851 101.592 16.4562 101.518 16.5448C101.443 16.6333 101.388 16.7373 101.356 16.8496C101.325 16.9619 101.317 17.0799 101.334 17.1954V25.6064L95.5802 17.1413C95.1566 16.5457 94.9625 16.3471 94.5212 16.3471C94.08 16.3471 93.7799 16.672 93.7799 17.2676V27.664C93.7629 27.7796 93.7705 27.8975 93.8021 28.0098C93.8338 28.1221 93.8888 28.2261 93.9634 28.3147C94.038 28.4033 94.1303 28.4743 94.2342 28.523C94.3381 28.5717 94.4511 28.597 94.5654 28.597C94.6797 28.597 94.7925 28.5717 94.8964 28.523C95.0003 28.4743 95.0927 28.4033 95.1673 28.3147C95.2418 28.2261 95.2969 28.1221 95.3285 28.0098C95.3602 27.8975 95.3677 27.7796 95.3507 27.664V19.2892L101.105 27.7362C101.493 28.2958 101.722 28.4943 102.164 28.4943Z" fill="#F0E5E9"/>
</svg>
